<svg xmlns="http://www.w3.org/2000/svg" enable-background="new 0 0 50 50" viewBox="0 0 50 50"><path d="M37.6,12.6c0-0.8-0.4-1.5-1-1.9v3.8C37.2,14.1,37.6,13.4,37.6,12.6z"/><path d="M43.3,28.3c-0.9,0-1.8,0.2-2.5,0.6l-0.1-0.1l0,0c1.3-0.6,3.2-1,5.7-0.6c0,0,0.8,0,1.2-0.2c0,0-1.1-4.2-6.7-3.6
		c0,0-0.1,0-0.2,0.1c0.9-1.6-0.5-6.8-4.2-8.9c-0.3,0-0.7-0.1-1,0.2c-0.2-0.3,0.1-0.6,0.5-0.8c0.2-2.3-0.3-3.9-0.6-4.7
		c-1.4-0.1-3.4,0.4-4.1,1.7c-0.1,0-0.2,0-0.3,0c-0.4,0-0.7,0.3-0.8,0.6c-0.1,0-0.5,0.2-0.6,0.2c-0.2,0.1-0.3,0.3-0.3,0.5
		c0,0.3,0.2,0.5,0.5,0.5c0.2,0,0,0,0.6-0.2c0.1,0.1,0.2,0.1,0.4,0.2c-0.1,0.6,1.1,3.4,1.4,4l0,0c0,0,0,0,0,0l0,0c0,0,1.1,3.2,2,5.9
		c0.9,2.7-1.2,8.4-1.2,8.4s-3.9-0.3-5.6-0.5c-1.7-0.2-0.9-0.4-1.8-1.3c-1.1-1.2,0.4-3.8,0.2-5c0.7-0.5,0.5-2.1,0.5-2.2
		c-0.5-2.8-2.3-3.4-3-3.4c-0.8,0-3.6-0.3-5.5-0.3s-5.7-1.4-6.7-1.6c-0.6-0.1-1,0.2-1.1,0.5l-0.9-1H8.1l1.1,3l-0.9,0.2L8.5,21
		l1.2,0.5l-2.5,2.3l-1.7,0.4c-0.4,1-0.9,2.2-1.1,2.4c0,0,0,0,0,0c-0.5,1.1-1.4,3.1-1.4,3.8c-0.1,0.9-1.5,2.1-1.9,2.3
		c0,0,0.8,0.4,2.4-1.2c0.9-1,1.7-3.4,3.5-4.4c0.1,0,3.2,0.4,4.3,0.6c-0.1,0-0.1,0,0,0c-0.1,0.2-0.2,0.6-0.4,1l0,0
		c-2.4-0.8-5.4,0.3-6.7,2.8c-0.9,0.1-1.4,0.5-1.5,1.1c-0.1,0.2,0.2,0.6,0.8,1c0,0.2,0,0.4,0,0.6c0,3.2,2.6,5.7,5.7,5.7
		c2.3,0,4.3-1.4,5.2-3.4c0,0.1,0.1,0.1,0.1,0.2c0,0,0,0,0,0c0.1,0.2,0.3,0.4,0.5,0.4c0.8,0.3,5.3,0.2,7.2-0.7h0
		c0.3,0.4,0.6,0.6,1,0.6c2,0.1,8.3,0.4,10.6-0.2c1.5-0.4,2.4-2.2,2.8-3.7c0.3-0.5,0.7-1,1-1.8l0,0c0,0,0.5-0.8,1.6-1.7l0.1,0.2
		c-1.2,1-1.9,2.6-1.9,4.3c0,3.2,2.6,5.7,5.7,5.7c3.2,0,5.7-2.6,5.7-5.7S46.4,28.3,43.3,28.3z M29.6,13.6c-0.2,0-0.4-0.2-0.4-0.4
		c0-0.5,0.8-0.5,0.8,0C30,13.4,29.8,13.6,29.6,13.6z M30.3,12.8c0-0.2,0.1-0.4,0.3-0.5l0.4,0c0.3,0.1,0.4,0.3,0.4,0.5
		c0,0.3-0.3,0.6-0.6,0.6C30.6,13.4,30.3,13.1,30.3,12.8z M4.4,26.6L4.4,26.6L4.4,26.6z M10,33.2c0.2,0,0.4,0.2,0.3,0.4
		c-0.1,0.1-0.1,0.2-0.3,0.2c-0.2,0-0.3-0.1-0.3-0.3C9.7,33.4,9.8,33.2,10,33.2z M5.3,32.5c0-0.2,0.2-0.4,0.5-0.3
		c0.1,0,0.2,0.2,0.2,0.3c0,0.2-0.1,0.3-0.3,0.3C5.5,32.8,5.3,32.7,5.3,32.5z M11.6,32.7c0.5,0.2,1.1,0.3,1.4,0.6c0,0.1,0,0.1,0,0.2
		C12.6,33.3,12.2,33,11.6,32.7z M10.2,30.4L10.2,30.4c-0.2,0.6-0.4,1.3-0.1,1.6c0,0,0,0,0,0C10,32,9.8,31.9,9.6,31.9v-1.6
		C9.8,30.3,10,30.4,10.2,30.4z M8.8,30.3v1.3c-0.7-0.2-1.3-0.3-1.9-0.3l-0.2-0.2C7.3,30.7,8,30.4,8.8,30.3z M5.3,34.6h0.5
		c0.9,0.3,1.4,0.5,1.8,0.6l-1.4,1.5C5.7,36.1,5.4,35.4,5.3,34.6z M6.8,37.2l1.7-1.7c0.1,0.1,0.2,0.1,0.4,0.1v2.4
		C8,38,7.3,37.7,6.8,37.2z M9.6,38v-2.4c0.6,0.1,0.4,0.1,0.5,0.1l1.5,1.5C11.1,37.6,10.4,38,9.6,38z M12.2,36.6l-0.8-0.8
		c0.5,0,0.9,0.1,1.2,0.1C12.5,36.2,12.4,36.4,12.2,36.6z M47.1,33.8h-2.4c0-0.1-0.1-0.2-0.1-0.3l1.7-1.7C46.7,32.3,47,33,47.1,33.8z
		 M45.7,31.2L44,32.9c-0.1-0.1-0.2-0.1-0.3-0.1v-2.4C44.5,30.4,45.1,30.7,45.7,31.2z M43.2,34.5c0-0.1,0.1-0.2,0.2-0.2
		c0.1,0,0.2,0.1,0.2,0.2c0,0.1-0.1,0.2-0.2,0.2C43.3,34.7,43.2,34.6,43.2,34.5z M42.9,30.3v2.2l-1.1-1.9
		C42.1,30.4,42.5,30.4,42.9,30.3z M40.2,31.7l1.7,1.7c-0.1,0.1-0.1,0.2-0.2,0.4h-2.4C39.4,33,39.8,32.3,40.2,31.7z M39.4,34.6h2.4
		c0,0.1,0.1,0.3,0.2,0.4l-1.7,1.7C39.8,36.1,39.4,35.4,39.4,34.6z M40.8,37.2l1.7-1.7c0.1,0.1,0.2,0.1,0.4,0.1v2.4
		C42.1,38,41.4,37.7,40.8,37.2z M43.7,38v-2.4c0.1,0,0.2-0.1,0.3-0.1l1.7,1.7C45.1,37.6,44.5,38,43.7,38z M46.3,36.6l-1.7-1.7
		c0-0.1,0.1-0.2,0.1-0.3h2.4C47,35.3,46.7,36,46.3,36.6z"/></svg>