<svg xmlns="http://www.w3.org/2000/svg" enable-background="new 0 0 50 50" viewBox="0 0 50 50"><path d="M40.2,23c-1.9,0-3,0.6-3.7,0.8l-0.3-0.7c1.6-0.7,2.7-0.9,4.1-0.9c1.9,0,3.7,0.5,5.4,1.5c-1.5-1.2-3.4-1.9-5.4-2
		c-1.5-0.1-3,0.2-4.4,0.8l-2.3-6.1h0.3l1.1-1.3h0.5v-0.3c0.2,0,0.3,0,0.5,0c0,0,0-0.1-0.1-0.1c0.1,0,0.2,0,0.3,0
		c-0.3-0.5-0.2-1.1-0.1-1.7c-0.1,0-0.2,0-0.3,0.1c0,0,0-0.1,0-0.1c-0.9,0-2.2,0.5-2.2,1.1c0,0.4,0.8,0.7,1.5,0.8v0.1H35l-1.1,1.3
		h-0.3c-0.2-0.4-0.2-0.7-0.4-0.6h0l-1.1-2.9l0.9-1.2c0.3-0.3,0.1-0.8-0.2-1l-1.4-0.7c-0.1,0-0.2-0.1-0.3-0.1l-1.2,0.1l0,0
		c0-0.1-0.2-0.2-0.3-0.2l-3.1,0.8c-0.1,0-0.2,0.2-0.2,0.3l0.2,0.6c0,0.1,0.2,0.2,0.3,0.2l3.1-0.8c0.1,0,0.2-0.2,0.2-0.3l1.1-0.1
		c0,0,0,0,0.1,0l1.4,0.7c0.1,0,0.1,0.1,0,0.2l-0.8,1c0,0-0.1,0-0.2,0L31.6,12c-0.1,0-0.1,0.1-0.1,0.2l0.1,0.1c0,0,0,0,0,0l-1.4-0.5
		c-0.1,0-0.2,0-0.3,0l-1.1,0.2c-0.1-0.1-0.1-0.1-0.2-0.1l-2.4,0.7c-0.1,0-0.2,0.2-0.2,0.3l0.1,0.4c0,0.1,0.2,0.2,0.3,0.2l2.4-0.7
		c0.1,0,0.2-0.1,0.2-0.3c0.7-0.1,1-0.2,1-0.2l1.4,0.5c0.2,0.1,0.3,0,0.4,0l1.1,2.8l0,0c-0.2,0.1,0,0.3,0.1,0.5
		c0,0.4-0.9,9.7-10.5,11.5L19.3,19l-0.1,0l-1.1-3c0.3,0,0.6,0,0.8-0.1c0.6-0.2,2.3-0.7,2.3-0.7s0.1-1.2-1.1-1.2
		c-1.1,0-3.4,0.1-4.3,0.2c-0.9,0-1.4,1-1,1.4c0.5,0.4,1.4,0.3,1.6,0.4c0.1,0,0.5,0.1,1,0.1l1.2,3.2l-0.2,0.1l0.1,0.2l-1.7,2.9
		l-3.6-1.7c0,0-0.1,0-0.1,0l-9.2-0.9c-0.2,0-0.3,0.1-0.3,0.3c0,0.2,0.1,0.3,0.3,0.3l3.5,0.3l0.5,1.8v0c-2.3,0.8-4,2.3-5.2,4.4
		c0,0,0-0.1,0-0.1H1.5c-0.1,0-0.2,0.1-0.2,0.2v0H1.2c-0.1,0-0.2,0.1-0.2,0.2v1.5c0,0.1,0.1,0.2,0.2,0.2h0.2v0c0,0.1,0.1,0.2,0.2,0.2
		h0.3c0,0,0,0,0,0c-0.2,0.9-0.3,1.8-0.3,2.7C1.6,28,4,24.4,8,23l0.1,0.5c-3.4,1.2-5.8,4.4-5.8,8.3c0,4.8,3.9,8.8,8.8,8.8
		c3.8,0,7-2.5,8.1-5.4c0.1,0,3.9,0.8,4.1,0.8c1.6,0.2,3.1-1,3.3-2.6c0.1-0.6-0.1-1.3-0.3-1.8l0.8-0.5l0,0c0.1,0.1,0.3,0.2,0.4,0.1
		l1.5-1c0.1-0.1,0.2-0.3,0.1-0.4l-0.2-0.3c-0.1-0.1-0.3-0.2-0.4-0.1l-1.5,1c-0.1,0.1-0.2,0.3-0.1,0.4v0L26,31.3
		c-0.2-0.3-0.5-0.5-0.7-0.7l9.5-9l0.5,1.4c-2.1,1.2-3.6,2.9-4.3,4.7c-0.8,1.9-1,3.9-0.6,5.7c-0.2-1.9,0.2-3.7,1-5.5
		c0.8-1.6,2.1-3.1,4-4.3l0.3,0.7c-0.1,0.1-4.3,2.4-4.3,7.6c0,4.8,3.9,8.8,8.8,8.8c4.8,0,8.8-3.9,8.8-8.8C49,27,45.1,23,40.2,23z
		 M13,21.2l3.5,1.6l-0.3,0.6c-0.4-0.3-0.9-0.5-1.3-0.7c-1.2-0.5-2.5-0.8-3.8-0.8c-0.7,0-1.4,0.1-2.1,0.3l-0.3-1.3L13,21.2z
		 M12.9,29.9l-0.3,0l2.5-4.1c0.4,0.2,0.7,0.5,1.1,0.8L12.9,29.9z M16.3,26.7c0.6,0.6,1.1,1.4,1.5,2.2l-2.3,1h0l-2.3,0L16.3,26.7z
		 M13.9,25.1c0.3,0.1,0.6,0.3,0.9,0.5l-2.6,4.3l-0.3,0L13.9,25.1z M11.8,29.9l-0.6,0v-5.3c0.9,0,1.8,0.2,2.6,0.5L11.8,29.9z
		 M11.1,23c-0.7,0-1.3,0.1-1.9,0.2l-0.1-0.5c0.7-0.1,1.3-0.2,2-0.2c1.7,0,3.4,0.5,4.9,1.3l-0.3,0.5C14.3,23.5,12.8,23,11.1,23z
		 M9.6,27.9l-0.8-3c0.2-0.1,0.3-0.1,0.5-0.1l1.1,5L9.6,27.9z M10.3,30c0,0-0.1,0-0.1,0.1L9.8,29L10.3,30z M8.4,23.5l-0.1-0.5
		c0.2-0.1,0.4-0.1,0.6-0.2l0.1,0.5C8.8,23.4,8.6,23.4,8.4,23.5z M8.8,26l-0.4-0.9c0,0,0.1,0,0.1,0L8.8,26z M9.5,24.7
		c0.5-0.1,1-0.2,1.5-0.2v5.3c-0.1,0-0.2,0-0.4,0L9.5,24.7z M8.1,22.4L8.1,22.4l-0.4-1.7l0.7,0.1l0.3,1.4v0
		C8.5,22.3,8.3,22.3,8.1,22.4z M8.3,25.1L9,27l0.8,3.2c-0.1,0-0.1,0.1-0.2,0.1L6,26.6C6.7,26,7.4,25.5,8.3,25.1z M5.9,26.7l3.7,3.7
		c-0.2,0.2-0.3,0.3-0.4,0.5l-4.8-2C4.8,28.1,5.3,27.4,5.9,26.7z M4.4,29.1l4.8,2c-0.1,0.2-0.1,0.4-0.1,0.6H3.9
		C3.9,30.8,4,29.9,4.4,29.1z M3.9,31.9h5.2c0,0.2,0.1,0.4,0.2,0.6l-4.9,2C4,33.7,3.9,32.8,3.9,31.9z M4.4,34.6l4.9-2
		c0.1,0.2,0.2,0.4,0.4,0.5l-3.8,3.8C5.3,36.2,4.8,35.5,4.4,34.6z M6,37l3.8-3.8c0.1,0.1,0.3,0.2,0.5,0.3l-2.1,5
		C7.4,38.1,6.7,37.6,6,37z M11,39c-0.9,0-1.8-0.2-2.6-0.5l2.1-5c0.2,0,0.1,0,0.6,0.1V39z M10.4,31.7c0-0.4,0.3-0.8,0.8-0.8
		c0.4,0,0.8,0.3,0.8,0.8c0,0.4-0.3,0.8-0.8,0.8C10.8,32.4,10.4,32.1,10.4,31.7z M11.2,39v-5.3c0.1,0,0.6,0.1,0.7,0.1l1.9,4.7
		C13,38.8,12.1,39,11.2,39z M13.9,38.5L12,33.8l1.3,0.2l2.9,2.9C15.5,37.6,14.8,38.1,13.9,38.5z M16.3,36.9l-2.7-2.7l4.1,0.8
		C17.3,35.6,16.8,36.3,16.3,36.9z M15.8,29.9l2.1-0.8c0.1,0.3,0.2,0.6,0.3,0.9L15.8,29.9z M19.7,30c-0.5-2.3-1.9-4.3-3.8-5.5
		l0.3-0.5c2.2,1.4,3.7,3.6,4.2,6L19.7,30z M20.6,30c-0.1-0.7-0.3-1.3-0.5-1.9c-0.7-1.8-1.9-3.4-3.6-4.5l0.4-0.6l0.6,0.3
		c0.1,0.1,0.3,0,0.4-0.1c0.1-0.1,0-0.3-0.1-0.4l-0.6-0.3l1.6-2.6L22.3,30L20.6,30L20.6,30z M21.3,33c0-1.4,1.3-2.2,2.2-2
		c0.6,0,1.1,0.3,1.5,0.8l-1.4,0.7c-0.4-0.2-0.8,0.1-0.8,0.5v0l-1.3,0.8C21.4,33.6,21.3,33.3,21.3,33z M25.4,33c0,1.1-0.9,2-2,2
		c-0.7,0-1.3-0.3-1.6-0.8l1.4-0.7c0.3,0.2,0.8-0.1,0.8-0.5v0l1.3-0.8C25.4,32.5,25.4,32.7,25.4,33z M24.8,30.3L24.8,30.3
		c-0.3-0.1-0.7-0.2-1.1-0.2l-0.5,0l-0.6-1.8v0c2.5-0.5,4.3-1.4,5.8-2.5l-0.1,0.1l0.6,0.6L24.8,30.3z M29.1,26.2l-0.6-0.6
		c3.6-2.8,4.5-6.9,4.8-8.4l1.4,3.7L29.1,26.2z M37.4,25.1l2.1,5l-1.1-1.5l-1.3-3.4C37.2,25.2,37.3,25.2,37.4,25.1z M36.3,25.7
		l1.2,3.4l-2.4-2.4C35.5,26.3,35.9,26,36.3,25.7z M35.1,26.7l3.2,3.2l1.1,1.5L33.6,29C33.9,28.1,34.4,27.4,35.1,26.7z M33.5,29.1
		l5.8,2.4c0,0.1,0,0.2,0,0.2H33C33,30.8,33.2,29.9,33.5,29.1z M33,31.9h6.3c0,0.1,0,0.1,0,0.2l-5.8,2.4C33.2,33.7,33,32.8,33,31.9z
		 M33.6,34.6l5.8-2.4c0,0.1,0.1,0.1,0.1,0.2l-4.4,4.5C34.4,36.2,33.9,35.5,33.6,34.6z M35.2,37l4.5-4.5c0.1,0,0.1,0.1,0.2,0.1
		l-2.4,5.8C36.6,38.1,35.8,37.6,35.2,37z M40.2,39c-0.9,0-1.8-0.2-2.6-0.5l2.4-5.8c0.1,0,0.1,0,0.2,0.1V39z M40.2,30.9
		c0,0-0.1,0-0.1,0l-0.3-0.3l-2.3-5.5c0.8-0.3,1.7-0.5,2.6-0.5V30.9z M47.5,31.7h-6.3c0-0.1,0-0.2,0-0.2l5.8-2.4
		C47.3,29.9,47.5,30.8,47.5,31.7z M46.9,29l-5.8,2.4c0-0.1-0.1-0.1-0.1-0.2l4.5-4.5C46,27.4,46.5,28.1,46.9,29z M45.3,26.6l-4.5,4.4
		c-0.1,0-0.1-0.1-0.2-0.1l2.4-5.8C43.9,25.5,44.7,26,45.3,26.6z M40.3,24.6c0.9,0,1.8,0.2,2.6,0.5l-2.4,5.8c-0.1,0-0.2,0-0.2,0V24.6
		z M40.3,39v-6.3c0.1,0,0.2,0,0.2-0.1l2.4,5.8C42.1,38.8,41.2,39,40.3,39z M43.1,38.5l-2.4-5.8c0.1,0,0.1-0.1,0.2-0.1l4.5,4.5
		C44.7,37.6,43.9,38.1,43.1,38.5z M45.4,36.9l-4.4-4.5c0.1-0.1,0.1-0.1,0.1-0.2l5.8,2.4C46.5,35.5,46,36.2,45.4,36.9z M46.9,34.5
		l-5.8-2.4c0-0.1,0-0.2,0-0.2h6.3C47.5,32.8,47.3,33.7,46.9,34.5z"/></svg>