<svg xmlns="http://www.w3.org/2000/svg" enable-background="new 0 0 50 50" viewBox="0 0 50 50"><path d="M49,27c0-0.4,0-0.8-0.5-1c-0.4-0.2-0.3-0.9-0.3-1c0.3-1.7,0-2.5,0-2.5c-0.7-1.6-9.5-1.9-9.5-1.9l-0.5,0.2c0,0-0.1,0-0.1,0
		c-0.5,0.3-1.5-0.6-2.1-1c-4.3-2.8-3.9-2.6-4.4-2.7c-2.6-0.6-11.3-0.5-12.1-0.2c-0.8,0.2-1.2,4.2-1.2,4.2L1.7,20.7l-0.3,0.7l0.3,0.5
		c0,0,0,0.1,0,0.2c0.4,0,1,0,1.1,0.2c0.1,0.3,0.8,2.5,0.4,2.7c0,0-0.7,0.1-1.3,0c0,0.7,0.1,0.7,0,0.8c-0.5,0.3-1.1-0.2-0.5,2.1v0.7
		c0,0.1,0.1,0.2,0.2,0.2c0.1,0,5.1-0.5,4.7-0.5C6.4,28,6.8,27.3,7.3,26c1.1-2.6,6-2.3,7,0.1c0.5,1.3,0.8,2.3,1,2.9l3.4,0l8.5,0.1
		c0.2-8.2,0-6.1-0.2-9.8c0-0.1-0.1-2-0.1-1.9c0.1,0,0.5,0,0.5,0c0.2,2.9,0.4,8.8,0.3,11.7l9.2,0.1c0.3-0.4,0.5-1.4,1.2-2.9
		c0.8-1.8,3.7-1.8,3.7-1.8s2.2,0,3.1,1.3v0c0.2,0.3,1.1,2.6,1.8,2.9C47,28.7,47,29,47,29.3c0,0,0,0,0,0s1.1-0.4,1.6-0.5
		C49.2,28.7,49,27.4,49,27z M14.9,24.5c-0.5,0-0.8-0.4-0.8-0.8c0-0.5,0.4-0.8,0.8-0.8c0.4,0,0.8,0.4,0.8,0.8
		C15.7,24.1,15.4,24.5,14.9,24.5z M21.9,22.5c0,0.1-0.1,0.2-0.2,0.2h-1.9c-0.1,0-0.2-0.1-0.2-0.2v-0.2c0-0.1,0.1-0.2,0.2-0.2h1.9
		c0.1,0,0.2,0.1,0.2,0.2V22.5z M26.7,21.1l-6.1-0.2l0.3-2.5c0.1-0.6,0.6-1.1,1.3-1.1l4.6,0.1C26.7,17.4,26.7,21.2,26.7,21.1z
		 M30.6,22.6c0,0.1-0.1,0.2-0.2,0.2h-1.9c-0.1,0-0.2-0.1-0.2-0.2v-0.2c0-0.1,0.1-0.2,0.2-0.2h1.9c0.1,0,0.2,0.1,0.2,0.2V22.6z
		 M28.2,21.2L28.2,21.2L28.2,21.2c-0.2-2.5-0.4-3.9-0.4-3.8l1.8,0c1.7,0,3.5,1,5.2,2.5l-0.3,0h0c-0.1,0-0.3,0.1-0.3,0.2v1
		c0,0.1,0,0.1,0.1,0.2h0c0,0,0.1,0.1,0.1,0.1c0.1,0,0.1,0,0.1,0c0.1,0,0.2,0,0.3,0c0,0,0.1,0,0.1,0c0.1,0,0.3,0,0.3,0
		c0.2,0,0.3-0.1,0.4-0.2l0-0.2l0-0.2C37.1,21.9,36.8,21.3,28.2,21.2z M45.7,25.2L45.5,25h0.9c0.3,0,0.6-0.3,0.6-0.6
		c0-0.4-0.3-0.6-0.6-0.6h-0.4l0.3-0.4l1.8-0.1l-0.1,1.9H45.7z M48.2,27.3c0,0.1-0.2,0-0.3,0c-1,0-1.2-1.1-1-1.1
		C48.9,26.2,48,25.9,48.2,27.3z"/><path d="M41.7 25.8c-2.1 0-3.8 1.7-3.8 3.8 0 2.1 1.7 3.8 3.8 3.8s3.8-1.7 3.8-3.8C45.5 27.5 43.8 25.8 41.7 25.8zM40 27.7c.4.5.7 1 1.1 1.5 0 0-.1.1-.1.1-.6.2-1.2.4-1.8.5C39.1 29.1 39.3 28.3 40 27.7zM41.2 32.1c-.8-.2-1.4-.7-1.8-1.3.6-.2 1.1-.5 1.7-.7.1.1.1.1.2.2C41.3 30.9 41.2 31.5 41.2 32.1zM41.7 28.8c-.3-.5-.6-1.1-1-1.6.6-.3 1.4-.2 2 0-.3.5-.6 1.1-.9 1.6C41.8 28.9 41.9 28.9 41.7 28.8zM42.1 32.2c0-.6 0-1.2 0-1.9.1 0 .2-.1.2-.2.6.2 1.1.5 1.7.7C43.6 31.5 42.9 32 42.1 32.2zM44.3 29.9c-.6-.2-1.2-.4-1.8-.6 0 0 0-.1 0-.1.4-.5.7-1 1.1-1.5.5.5.8 1.1.8 1.8C44.3 29.7 44.3 29.8 44.3 29.9zM10.7 25.8c-2.1 0-3.8 1.7-3.8 3.8 0 2.1 1.7 3.8 3.8 3.8 2.1 0 3.8-1.7 3.8-3.8C14.5 27.5 12.8 25.8 10.7 25.8zM9 27.7c.4.5.7 1 1.1 1.5 0 0-.1.1-.1.1-.6.2-1.2.4-1.8.5C8.1 29.1 8.4 28.3 9 27.7zM10.2 32.1c-.8-.2-1.4-.7-1.8-1.3.6-.2 1.1-.5 1.7-.7.1.1.1.1.2.2C10.3 30.9 10.2 31.5 10.2 32.1zM10.7 28.8c-.3-.5-.6-1.1-1-1.6.6-.3 1.4-.2 2 0-.3.5-.6 1.1-.9 1.6C10.9 28.9 10.9 28.9 10.7 28.8zM11.1 32.2c0-.6 0-1.2 0-1.9.1 0 .2-.1.2-.2.6.2 1.1.5 1.7.7C12.6 31.5 11.9 32 11.1 32.2zM13.3 29.9c-.6-.2-1.2-.4-1.8-.6 0 0 0-.1 0-.1.4-.5.7-1 1.1-1.5.5.5.8 1.1.8 1.8C13.3 29.7 13.3 29.8 13.3 29.9z"/></svg>