<?xml version="1.0" encoding="UTF-8"?><svg xmlns="http://www.w3.org/2000/svg" xmlns:xlink="http://www.w3.org/1999/xlink" version="1.2" baseProfile="tiny" id="Layer_1" x="0px" y="0px" viewBox="0 0 512 512" xml:space="preserve"><g id="XMLID_6455_"><path id="XMLID_8112_" d="M108.3 284.9h30.4v11h-30.4z"/><path id="XMLID_7627_" d="M15 259.5h-.3c-.3 0-.6.2-.6.6v.4c-3-.8-4.3-2.6-4.7-4h.3c.5 0 .9-.4.9-.9v-12.8c0-.5-.4-.9-.9-.9H7.8c-.5 0-.9.4-.9.9L6 255.6c0 .5.4 1 .9 1h.9c.5 1.9 2 4.7 6.4 5.6v.2c0 .3.2.6.6.6h.2c.3 0 .6-.2.6-.6v-2.3c0-.3-.3-.6-.6-.6z"/><g id="XMLID_8010_"><path id="XMLID_7624_" d="M196.8 288.3h1.5v19.3h-1.5z"/><path id="XMLID_7623_" d="M254.7 288.3h1.5v19.3h-1.5z"/><path id="XMLID_7622_" d="M188.7 304.4h75.7v2.9h-75.7z"/><path id="XMLID_7621_" d="M188.7 297.5h75.7v2.9h-75.7z"/></g><g id="XMLID_6675_"><path id="XMLID_6700_" d="M18.7 280.1V302c0 .9.7 1.6 1.6 1.6H27c.7 0 1.2-.4 1.5-1 1.9-4.6 8.5-19 18-21.6h-26c-.7.1-1.4-.3-1.8-.9z"/><path id="XMLID_6697_" d="M50.1 229.7v49.1c0 .8-.4 1.4-1 1.8h24c.9 0 1.6-.7 1.6-1.6.2-7.4.4-32.7-3.2-49.9-.2-.7-.8-1.3-1.6-1.3H49.1c.6.5 1 1.2 1 1.9zm3.5 2c0-.8.7-1.5 1.5-1.5h4.7c.8 0 1.5.7 1.5 1.5v14c0 .8-.7 1.5-1.5 1.5h-4.7c-.8 0-1.5-.7-1.5-1.5v-14z"/><path id="XMLID_6691_" d="M81.4 293.9V277c0-8.9-.5-17.7-1.4-26.6l-2.7-26 .4-18.2c0-1.1-1.3-2-2.9-1.9-35.1 2.4-48 20.1-48 20.1h.7c-2.2 0-4.1 1.4-4.8 3.5l-9.3 30c-1.2 3.8-1.8 7.7-1.8 11.7v3.7h1c1.6 0 2.8 1.3 2.8 2.9l-.1 5.8c0 1.6-2.1 2.8-3.7 2.8v21.3H9.7c-.8 0-1.5.7-1.5 1.5v3.8c0 .8.7 1.5 1.5 1.5h26.6l4.1-15.8c.2-1 1.1-1.6 2.1-1.6h22.4c1 0 1.8.7 2.1 1.6l4.1 15.8h75.8l4.1-15.8c.2-1 1.1-1.6 2.1-1.6h22.4v-1.6H81.4zm-56.3 17.3h-3c-1.5 0-2.7-1.2-2.7-2.7h8.3c0 1.5-1.2 2.7-2.6 2.7zm50.1 1.6h-.4l-.1-32.6c-.4.5-1 .8-1.6.8H49c-10.6.5-18.1 16.8-20.1 21.7-.3.8-1 1.2-1.9 1.2h-6.8c-1.1 0-2-.9-2-2v-23-22.8c0-.7.1-1.3.3-2l7.4-25.2c.3-.9 1.2-1.6 2.2-1.6h19v.4h-19c-.8 0-1.5.5-1.8 1.3l-7.4 25.2c-.2.6-.3 1.2-.3 1.8v22.6c0 1 .8 1.8 1.8 1.8h27.3c1 0 1.8-.8 1.8-1.8v-49.1c0-1-.8-1.8-1.8-1.8H49c-.4-.3-.8-.4-1.3-.4h22.1c.9 0 1.8.7 2 1.6 3.6 17.3 3.4 42.7 3.2 50l.2 33.9zm-27.9-62.9l-24.7.4c-.4 0-.7-.4-.6-.8l5.4-19.3c.1-.3.3-.4.6-.4h19.3c.3 0 .6.3.6.6v18.9c0 .3-.2.6-.6.6zm.6 4c0 .7-.5 1.2-1.2 1.2h-4.6c-.7 0-1.2-.5-1.2-1.2h7z"/><path id="XMLID_6690_" d="M47.3 230.2H28c-.1 0-.2.1-.2.1l-5.4 19.3v.2l.1.1 24.8-.4c.1 0 .2-.1.2-.2v-18.9c0-.1-.1-.2-.2-.2z"/><path id="XMLID_6689_" d="M55.1 246.8h4.7c.6 0 1.1-.5 1.1-1.1v-14c0-.6-.5-1.1-1.1-1.1h-4.7c-.6 0-1.1.5-1.1 1.1v14c0 .6.5 1.1 1.1 1.1z"/><path id="XMLID_6688_" d="M46.7 254.7c.3 0 .5-.1.7-.4h-5.9c.1.2.4.4.7.4h4.5z"/><path id="XMLID_6687_" d="M74.7 279.1v1.2c.2-.3.4-.7.4-1.1l-.4-.1z"/><path id="XMLID_6686_" d="M22 310.4h3c1.1 0 2-.8 2.2-1.9h-7.5c.3 1.1 1.2 1.9 2.3 1.9z"/><path id="XMLID_6685_" d="M11.7 282.8v2-2z"/><path id="XMLID_6681_" d="M14.8 276.2c0-.3-.2-.5-.5-.5h-2.6v.9h2.6c.2.1.5-.1.5-.4z"/><path id="XMLID_6680_" d="M15 279.1c0-.3-.2-.5-.5-.5h-2.8v1h2.8c.3 0 .5-.2.5-.5z"/><path id="XMLID_6679_" d="M11.7 282.8v-.9z"/><path id="XMLID_6678_" d="M14.6 282.8c.2 0 .4-.2.4-.5s-.2-.5-.4-.5h-2.8v1h2.8z"/><path id="XMLID_6677_" d="M18.7 279h-.4c0 .4.2.8.4 1.1V279z"/><path id="XMLID_6676_" d="M46.6 281.1h1.3c.5 0 .9-.2 1.3-.4H49c-.8 0-1.6.1-2.4.4z"/></g><g id="XMLID_6579_"><path id="XMLID_6672_" d="M69 311.7l-.2-2c0-.3-.3-.5-.6-.4v-.1c.3-.1.4-.4.3-.6l-.6-1.9c-.1-.3-.4-.4-.6-.3v-.1c.2-.1.3-.4.2-.7l-1-1.8c-.1-.2-.4-.3-.7-.2l-.1-.1c.2-.2.2-.5 0-.7l-1.4-1.5c-.2-.2-.5-.2-.7 0l-.1-.1c.2-.2.1-.5-.1-.7l-1.6-1.2c-.2-.2-.5-.1-.7.1H61c.1-.3 0-.6-.3-.7l-1.8-.8c-.3-.1-.6 0-.7.3h-.1c.1-.3-.1-.5-.4-.6l-2-.4c-.3-.1-.5.1-.6.4H55c0-.3-.2-.5-.5-.5h-2c-.3 0-.5.2-.5.5h-.1c-.1-.3-.3-.4-.6-.4l-2 .4c-.3.1-.4.3-.4.6h-.1c-.1-.3-.4-.4-.7-.3l-1.8.8c-.3.1-.4.4-.3.7h-.1c-.2-.2-.5-.3-.7-.1l-1.6 1.2c-.2.2-.3.5-.1.7l-.1.1c-.2-.2-.5-.2-.7 0l-1.4 1.5c-.2.2-.2.5 0 .7l-.1.1c-.2-.1-.6-.1-.7.2l-1 1.8c-.1.2-.1.6.2.7v.1c-.3-.1-.6.1-.6.3l-.6 1.9c-.1.3.1.6.3.6v.1c-.3 0-.5.2-.6.4l-.2 2c0 .3.2.5.5.6v.1c-.3 0-.5.3-.5.6l.2 2c0 .3.3.5.6.5v.1c-.3.1-.4.4-.3.6l.6 1.9c.1.3.4.4.6.3v.1c-.2.1-.3.4-.2.7l1 1.8c.1.2.4.3.7.2l.1.1c-.2.2-.2.5 0 .7l1.4 1.5c.2.2.5.2.7 0l.1.1c-.2.2-.1.5.1.7l1.6 1.2c.2.2.5.1.7-.1h.1c-.1.3 0 .6.3.7l1.8.8c.3.1.6 0 .7-.3h.1c-.1.3.1.5.4.6l2 .4c.3.1.5-.1.6-.4h.1c0 .3.2.5.5.5h2c.3 0 .5-.2.5-.5h.1c.1.3.3.4.6.4l2-.4c.3-.1.4-.3.4-.6h.1c.1.3.4.4.7.3l1.8-.8c.3-.1.4-.4.3-.7h.1c.2.2.5.3.7.1l1.6-1.2c.2-.2.3-.5.1-.7l.1-.1c.2.2.5.2.7 0l1.4-1.5c.2-.2.2-.5 0-.7l.1-.1c.2.1.6.1.7-.2l1-1.8c.1-.2.1-.6-.2-.7v-.1c.3.1.6-.1.6-.3l.6-1.9c.1-.3-.1-.6-.3-.6v-.1c.3 0 .5-.2.6-.5l.2-2c0-.3-.2-.5-.5-.6v-.1c.3-.1.5-.4.5-.6zm-15.4 10.6c-5.5 0-10-4.5-10-10s4.5-10 10-10 10 4.5 10 10-4.5 10-10 10z"/><path id="XMLID_6669_" d="M53.6 307.2c-2.8 0-5.1 2.3-5.1 5.1s2.3 5.1 5.1 5.1 5.1-2.3 5.1-5.1-2.3-5.1-5.1-5.1zm0 9.7c-2.6 0-4.6-2.1-4.6-4.6 0-2.6 2.1-4.6 4.6-4.6 2.6 0 4.6 2.1 4.6 4.6 0 2.5-2 4.6-4.6 4.6z"/><circle id="XMLID_6668_" cx="53.6" cy="312.3" r="1.5"/><path id="XMLID_6667_" d="M53.4 305.8c.1.2.4.2.5 0l1.3-2.4c.1-.2 0-.4-.2-.4h-2.5c-.2 0-.3.2-.2.4l1.1 2.4z"/><path id="XMLID_6666_" d="M53.8 318.7c-.1-.2-.4-.2-.5 0l-1.3 2.4c-.1.2 0 .4.2.4h2.5c.2 0 .3-.2.2-.4l-1.1-2.4z"/><path id="XMLID_6665_" d="M46.6 306.5c-.1-.2-.4-.2-.5 0l-1.3 2.2c-.1.2 0 .4.2.4l2.7.1c.2 0 .4-.2.2-.4l-1.3-2.3z"/><path id="XMLID_6664_" d="M62 315.4l-2.7-.1c-.2 0-.4.2-.2.4l1.5 2.3c.1.2.4.2.5 0l1.3-2.2c0-.2-.2-.4-.4-.4z"/><path id="XMLID_6663_" d="M47.9 315.3l-2.7.1c-.2 0-.3.2-.2.4l1.3 2.2c.1.2.3.2.5 0l1.5-2.3c-.1-.2-.2-.4-.4-.4z"/><path id="XMLID_6662_" d="M59.1 308.8c-.1.2 0 .4.2.4l2.7-.1c.2 0 .3-.2.2-.4l-1.3-2.2c-.1-.2-.3-.2-.5 0l-1.3 2.3z"/><circle id="XMLID_6661_" cx="53.6" cy="308.8" r="0.5"/><circle id="XMLID_6660_" cx="53.6" cy="315.8" r="0.5"/><circle id="XMLID_6659_" cx="50.6" cy="310.6" r="0.5"/><circle id="XMLID_6658_" cx="56.6" cy="314" r="0.5"/><circle id="XMLID_6657_" cx="50.6" cy="314" r="0.5"/><circle id="XMLID_6656_" cx="56.6" cy="310.6" r="0.5"/><path id="XMLID_6653_" d="M179.5 311.7l-.2-2c0-.3-.3-.5-.6-.4v-.1c.3-.1.4-.4.3-.6l-.6-1.9c-.1-.3-.4-.4-.6-.3v-.1c.2-.1.3-.4.2-.7l-1-1.8c-.1-.2-.4-.3-.7-.2l-.1-.1c.2-.2.2-.5 0-.7l-1.4-1.5c-.2-.2-.5-.2-.7 0l-.1-.1c.2-.2.1-.5-.1-.7l-1.6-1.2c-.2-.2-.5-.1-.7.1h-.1c.1-.3 0-.6-.3-.7l-1.8-.8c-.3-.1-.6 0-.7.3h-.1c.1-.3-.1-.5-.4-.6l-2-.4c-.3-.1-.5.1-.6.4h-.1c0-.3-.2-.5-.5-.5h-2c-.3 0-.5.2-.5.5h-.1c-.1-.3-.3-.4-.6-.4l-2 .4c-.3.1-.4.3-.4.6h-.1c-.1-.3-.4-.4-.7-.3l-1.8.8c-.3.1-.4.4-.3.7h-.1c-.2-.2-.5-.3-.7-.1l-1.6 1.2c-.2.2-.3.5-.1.7l-.1.1c-.2-.2-.5-.2-.7 0l-1.4 1.5c-.2.2-.2.5 0 .7l-.1.1c-.2-.1-.6-.1-.7.2l-1 1.8c-.1.2-.1.6.2.7v.1c-.3-.1-.6.1-.6.3l-.6 1.9c-.1.3.1.6.3.6v.1c-.3 0-.5.2-.6.4l-.2 2c0 .3.2.5.5.6v.1c-.3 0-.5.3-.5.6l.2 2c0 .3.3.5.6.5v.1c-.3.1-.4.4-.3.6l.6 1.9c.1.3.4.4.6.3v.1c-.2.1-.3.4-.2.7l1 1.8c.1.2.4.3.7.2l.1.1c-.2.2-.2.5 0 .7l1.4 1.5c.2.2.5.2.7 0l.1.1c-.2.2-.1.5.1.7l1.6 1.2c.2.2.5.1.7-.1h.1c-.1.3 0 .6.3.7l1.8.8c.3.1.6 0 .7-.3h.1c-.1.3.1.5.4.6l2 .4c.3.1.5-.1.6-.4h.1c0 .3.2.5.5.5h2c.3 0 .5-.2.5-.5h.1c.1.3.3.4.6.4l2-.4c.3-.1.4-.3.4-.6h.1c.1.3.4.4.7.3l1.8-.8c.3-.1.4-.4.3-.7h.1c.2.2.5.3.7.1l1.6-1.2c.2-.2.3-.5.1-.7l.1-.1c.2.2.5.2.7 0l1.4-1.5c.2-.2.2-.5 0-.7l.1-.1c.2.1.6.1.7-.2l1-1.8c.1-.2.1-.6-.2-.7v-.1c.3.1.6-.1.6-.3l.6-1.9c.1-.3-.1-.6-.3-.6v-.1c.3 0 .5-.2.6-.5l.2-2c0-.3-.2-.5-.4-.6v-.1c.2-.1.4-.4.4-.6zm-15.4 10.6c-5.5 0-10-4.5-10-10s4.5-10 10-10 10 4.5 10 10-4.5 10-10 10z"/><path id="XMLID_6650_" d="M164.1 307.2c-2.8 0-5.1 2.3-5.1 5.1s2.3 5.1 5.1 5.1 5.1-2.3 5.1-5.1-2.3-5.1-5.1-5.1zm0 9.7c-2.6 0-4.6-2.1-4.6-4.6 0-2.6 2.1-4.6 4.6-4.6 2.6 0 4.6 2.1 4.6 4.6 0 2.5-2.1 4.6-4.6 4.6z"/><circle id="XMLID_6649_" cx="164.1" cy="312.3" r="1.5"/><path id="XMLID_6648_" d="M163.8 305.8c.1.2.4.2.5 0l1.3-2.4c.1-.2 0-.4-.2-.4h-2.5c-.2 0-.3.2-.2.4l1.1 2.4z"/><path id="XMLID_6647_" d="M164.3 318.7c-.1-.2-.4-.2-.5 0l-1.3 2.4c-.1.2 0 .4.2.4h2.5c.2 0 .3-.2.2-.4l-1.1-2.4z"/><path id="XMLID_6646_" d="M155.6 309.1l2.7.1c.2 0 .4-.2.2-.4l-1.5-2.3c-.1-.2-.4-.2-.5 0l-1.3 2.2c.1.2.2.4.4.4z"/><path id="XMLID_6645_" d="M172.5 315.4l-2.7-.1c-.2 0-.4.2-.2.4l1.5 2.3c.1.2.4.2.5 0l1.3-2.2c-.1-.2-.2-.4-.4-.4z"/><path id="XMLID_6644_" d="M158.3 315.3l-2.7.1c-.2 0-.3.2-.2.4l1.3 2.2c.1.2.3.2.5 0l1.5-2.3c0-.2-.2-.4-.4-.4z"/><path id="XMLID_6643_" d="M169.6 308.8c-.1.2 0 .4.2.4l2.7-.1c.2 0 .3-.2.2-.4l-1.3-2.2c-.1-.2-.3-.2-.5 0l-1.3 2.3z"/><circle id="XMLID_6642_" cx="164.1" cy="308.8" r="0.5"/><circle id="XMLID_6641_" cx="164.1" cy="315.8" r="0.5"/><circle id="XMLID_6640_" cx="161" cy="310.6" r="0.5"/><circle id="XMLID_6639_" cx="167.1" cy="314" r="0.5"/><circle id="XMLID_6638_" cx="161" cy="314" r="0.5"/><circle id="XMLID_6637_" cx="167.1" cy="310.6" r="0.5"/><path id="XMLID_6634_" d="M381.8 311.7l-.2-2c0-.3-.3-.5-.6-.4v-.1c.3-.1.4-.4.3-.6l-.6-1.9c-.1-.3-.4-.4-.6-.3v-.1c.2-.1.3-.4.2-.7l-1-1.8c-.1-.2-.4-.3-.7-.2l-.1-.1c.2-.2.2-.5 0-.7l-1.4-1.5c-.2-.2-.5-.2-.7 0l-.1-.1c.2-.2.1-.5-.1-.7l-1.6-1.2c-.2-.2-.5-.1-.7.1h-.1c.1-.3 0-.6-.3-.7l-1.8-.8c-.3-.1-.6 0-.7.3h-.1c.1-.3-.1-.5-.4-.6l-2-.4c-.3-.1-.5.1-.6.4h-.1c0-.3-.2-.5-.5-.5h-2c-.3 0-.5.2-.5.5h-.1c-.1-.3-.3-.4-.6-.4l-2 .4c-.3.1-.4.3-.4.6h-.1c-.1-.3-.4-.4-.7-.3l-1.8.8c-.3.1-.4.4-.3.7h-.1c-.2-.2-.5-.3-.7-.1l-1.6 1.2c-.2.2-.3.5-.1.7l-.1.1c-.2-.2-.5-.2-.7 0l-1.4 1.5c-.2.2-.2.5 0 .7l-.1.1c-.2-.1-.6-.1-.7.2l-1 1.8c-.1.2-.1.6.2.7v.1c-.3-.1-.6.1-.6.3l-.6 1.9c-.1.3.1.6.3.6v.1c-.3 0-.5.2-.6.4l-.2 2c0 .3.2.5.5.6v.1c-.3 0-.5.3-.5.6l.2 2c0 .3.3.5.6.5v.1c-.3.1-.4.4-.3.6l.6 1.9c.1.3.4.4.6.3v.1c-.2.1-.3.4-.2.7l1 1.8c.1.2.4.3.7.2l.1.1c-.2.2-.2.5 0 .7l1.4 1.5c.2.2.5.2.7 0l.1.1c-.2.2-.1.5.1.7l1.6 1.2c.2.2.5.1.7-.1h.1c-.1.3 0 .6.3.7l1.8.8c.3.1.6 0 .7-.3h.1c-.1.3.1.5.4.6l2 .4c.3.1.5-.1.6-.4h.1c0 .3.2.5.5.5h2c.3 0 .5-.2.5-.5h.1c.1.3.3.4.6.4l2-.4c.3-.1.4-.3.4-.6h.1c.1.3.4.4.7.3l1.8-.8c.3-.1.4-.4.3-.7h.1c.2.2.5.3.7.1l1.6-1.2c.2-.2.3-.5.1-.7l.1-.1c.2.2.5.2.7 0l1.4-1.5c.2-.2.2-.5 0-.7l.1-.1c.2.1.6.1.7-.2l1-1.8c.1-.2.1-.6-.2-.7v-.1c.3.1.6-.1.6-.3l.6-1.9c.1-.3-.1-.6-.3-.6v-.1c.3 0 .5-.2.6-.5l.2-2c0-.3-.2-.5-.5-.6v-.1c.4-.1.6-.4.5-.6zm-15.4 10.6c-5.5 0-10-4.5-10-10s4.5-10 10-10 10 4.5 10 10-4.4 10-10 10z"/><path id="XMLID_6631_" d="M366.4 307.2c-2.8 0-5.1 2.3-5.1 5.1s2.3 5.1 5.1 5.1 5.1-2.3 5.1-5.1-2.2-5.1-5.1-5.1zm0 9.7c-2.6 0-4.6-2.1-4.6-4.6 0-2.6 2.1-4.6 4.6-4.6 2.6 0 4.6 2.1 4.6 4.6.1 2.5-2 4.6-4.6 4.6z"/><circle id="XMLID_6630_" cx="366.4" cy="312.3" r="1.5"/><path id="XMLID_6629_" d="M366.2 305.8c.1.2.4.2.5 0l1.3-2.4c.1-.2 0-.4-.2-.4h-2.5c-.2 0-.3.2-.2.4l1.1 2.4z"/><path id="XMLID_6628_" d="M366.7 318.7c-.1-.2-.4-.2-.5 0l-1.3 2.4c-.1.2 0 .4.2.4h2.5c.2 0 .3-.2.2-.4l-1.1-2.4z"/><path id="XMLID_6627_" d="M358 309.1l2.7.1c.2 0 .4-.2.2-.4l-1.5-2.3c-.1-.2-.4-.2-.5 0l-1.3 2.2c.1.2.2.4.4.4z"/><path id="XMLID_6626_" d="M374.9 315.4l-2.7-.1c-.2 0-.4.2-.2.4l1.5 2.3c.1.2.4.2.5 0l1.3-2.2c-.1-.2-.2-.4-.4-.4z"/><path id="XMLID_6625_" d="M360.7 315.3l-2.7.1c-.2 0-.3.2-.2.4l1.3 2.2c.1.2.3.2.5 0l1.5-2.3c0-.2-.2-.4-.4-.4z"/><path id="XMLID_6624_" d="M371.9 308.8c-.1.2 0 .4.2.4l2.7-.1c.2 0 .3-.2.2-.4l-1.3-2.2c-.1-.2-.3-.2-.5 0l-1.3 2.3z"/><circle id="XMLID_6623_" cx="366.4" cy="308.8" r="0.5"/><circle id="XMLID_6622_" cx="366.4" cy="315.8" r="0.5"/><circle id="XMLID_6621_" cx="363.4" cy="310.6" r="0.5"/><circle id="XMLID_6620_" cx="369.5" cy="314" r="0.5"/><circle id="XMLID_6619_" cx="363.4" cy="314" r="0.5"/><circle id="XMLID_6618_" cx="369.5" cy="310.6" r="0.5"/><path id="XMLID_6615_" d="M424 311.7l-.2-2c0-.3-.3-.5-.6-.4v-.1c.3-.1.4-.4.3-.6l-.6-1.9c-.1-.3-.4-.4-.6-.3v-.1c.2-.1.3-.4.2-.7l-1-1.8c-.1-.2-.4-.3-.7-.2l-.1-.1c.2-.2.2-.5 0-.7l-1.4-1.5c-.2-.2-.5-.2-.7 0l-.1-.1c.2-.2.1-.5-.1-.7l-1.6-1.2c-.2-.2-.5-.1-.7.1h-.1c.1-.3 0-.6-.3-.7l-1.8-.8c-.3-.1-.6 0-.7.3h-.1c.1-.3-.1-.5-.4-.6l-2-.4c-.3-.1-.5.1-.6.4h-.1c0-.3-.2-.5-.5-.5h-2c-.3 0-.5.2-.5.5h-.1c-.1-.3-.3-.4-.6-.4l-2 .4c-.3.1-.4.3-.4.6h-.1c-.1-.3-.4-.4-.7-.3l-1.8.8c-.3.1-.4.4-.3.7h-.1c-.2-.2-.5-.3-.7-.1l-1.6 1.2c-.2.2-.3.5-.1.7l-.1.1c-.2-.2-.5-.2-.7 0l-1.4 1.5c-.2.2-.2.5 0 .7l-.1.1c-.2-.1-.6-.1-.7.2l-1 1.8c-.1.2-.1.6.2.7v.1c-.3-.1-.6.1-.6.3l-.6 1.9c-.1.3.1.6.3.6v.1c-.3 0-.5.2-.6.4l-.2 2c0 .3.2.5.5.6v.1c-.3 0-.5.3-.5.6l.2 2c0 .3.3.5.6.5v.1c-.3.1-.4.4-.3.6l.6 1.9c.1.3.4.4.6.3v.1c-.2.1-.3.4-.2.7l1 1.8c.1.2.4.3.7.2l.1.1c-.2.2-.2.5 0 .7l1.4 1.5c.2.2.5.2.7 0l.1.1c-.2.2-.1.5.1.7l1.6 1.2c.2.2.5.1.7-.1h.1c-.1.3 0 .6.3.7l1.8.8c.3.1.6 0 .7-.3h.1c-.1.3.1.5.4.6l2 .4c.3.1.5-.1.6-.4h.1c0 .3.2.5.5.5h2c.3 0 .5-.2.5-.5h.1c.1.3.3.4.6.4l2-.4c.3-.1.4-.3.4-.6h.1c.1.3.4.4.7.3l1.8-.8c.3-.1.4-.4.3-.7h.1c.2.2.5.3.7.1l1.6-1.2c.2-.2.3-.5.1-.7l.1-.1c.2.2.5.2.7 0l1.4-1.5c.2-.2.2-.5 0-.7l.1-.1c.2.1.6.1.7-.2l1-1.8c.1-.2.1-.6-.2-.7v-.1c.3.1.6-.1.6-.3l.6-1.9c.1-.3-.1-.6-.3-.6v-.1c.3 0 .5-.2.6-.5l.2-2c0-.3-.2-.5-.5-.6v-.1c.3-.1.5-.4.5-.6zm-15.4 10.6c-5.5 0-10-4.5-10-10s4.5-10 10-10 10 4.5 10 10-4.5 10-10 10z"/><path id="XMLID_6612_" d="M408.6 307.2c-2.8 0-5.1 2.3-5.1 5.1s2.3 5.1 5.1 5.1 5.1-2.3 5.1-5.1-2.3-5.1-5.1-5.1zm0 9.7c-2.6 0-4.6-2.1-4.6-4.6 0-2.6 2.1-4.6 4.6-4.6 2.6 0 4.6 2.1 4.6 4.6.1 2.5-2 4.6-4.6 4.6z"/><circle id="XMLID_6611_" cx="408.6" cy="312.3" r="1.5"/><path id="XMLID_6610_" d="M408.4 305.8c.1.2.4.2.5 0l1.3-2.4c.1-.2 0-.4-.2-.4h-2.5c-.2 0-.3.2-.2.4l1.1 2.4z"/><path id="XMLID_6609_" d="M408.9 318.7c-.1-.2-.4-.2-.5 0l-1.3 2.4c-.1.2 0 .4.2.4h2.5c.2 0 .3-.2.2-.4l-1.1-2.4z"/><path id="XMLID_6608_" d="M400.2 309.1l2.7.1c.2 0 .4-.2.2-.4l-1.5-2.3c-.1-.2-.4-.2-.5 0l-1.3 2.2c.1.2.2.4.4.4z"/><path id="XMLID_6607_" d="M417.1 315.4l-2.7-.1c-.2 0-.4.2-.2.4l1.5 2.3c.1.2.4.2.5 0l1.3-2.2c-.1-.2-.2-.4-.4-.4z"/><path id="XMLID_6606_" d="M402.9 315.3l-2.7.1c-.2 0-.3.2-.2.4l1.3 2.2c.1.2.3.2.5 0l1.5-2.3c-.1-.2-.2-.4-.4-.4z"/><path id="XMLID_6605_" d="M414.1 308.8c-.1.2 0 .4.2.4l2.7-.1c.2 0 .3-.2.2-.4l-1.3-2.2c-.1-.2-.3-.2-.5 0l-1.3 2.3z"/><circle id="XMLID_6604_" cx="408.6" cy="308.8" r="0.5"/><circle id="XMLID_6603_" cx="408.6" cy="315.8" r="0.5"/><circle id="XMLID_6602_" cx="405.6" cy="310.6" r="0.5"/><circle id="XMLID_6601_" cx="411.6" cy="314" r="0.5"/><circle id="XMLID_6600_" cx="405.6" cy="314" r="0.5"/><circle id="XMLID_6599_" cx="411.6" cy="310.6" r="0.5"/><path id="XMLID_6596_" d="M465.7 312.3s0-.1 0 0c0-.1 0-.1 0 0 .3-.1.5-.4.5-.6l-.2-2c0-.3-.3-.5-.6-.4v-.1c.3-.1.4-.4.3-.6l-.6-1.9c-.1-.3-.4-.4-.6-.3v-.1c.2-.1.3-.4.2-.7l-1-1.8c-.1-.2-.4-.3-.7-.2l-.1-.1c.2-.2.2-.5 0-.7l-1.4-1.5c-.2-.2-.5-.2-.7 0l-.1-.1c.2-.2.1-.5-.1-.7l-1.6-1.2c-.2-.2-.5-.1-.7.1h-.1c.1-.3 0-.6-.3-.7l-1.8-.8c-.3-.1-.6 0-.7.3h-.1c.1-.3-.1-.5-.4-.6l-2-.4c-.3-.1-.5.1-.6.4h-.1c0-.3-.2-.5-.5-.5h-2c-.3 0-.5.2-.5.5h-.1c-.1-.3-.3-.4-.6-.4l-2 .4c-.3.1-.4.3-.4.6h-.1c-.1-.3-.4-.4-.7-.3l-1.8.8c-.3.1-.4.4-.3.7h-.1c-.2-.2-.5-.3-.7-.1l-1.6 1.2c-.2.2-.3.5-.1.7l-.1.1c-.2-.2-.5-.2-.7 0l-1.4 1.5c-.2.2-.2.5 0 .7l-.1.1c-.2-.1-.6-.1-.7.2l-1 1.8c-.1.2-.1.6.2.7v.1c-.3-.1-.6.1-.6.3l-.6 1.9c-.1.3.1.6.3.6v.1c-.3 0-.5.2-.6.4l-.2 2c0 .3.2.5.5.6v.1c-.3 0-.5.3-.5.6l.2 2c0 .3.3.5.6.5v.1c-.3.1-.4.4-.3.6l.6 1.9c.1.3.4.4.6.3v.1c-.2.1-.3.4-.2.7l1 1.8c.1.2.4.3.7.2l.1.1c-.2.2-.2.5 0 .7l1.4 1.5c.2.2.5.2.7 0l.1.1c-.2.2-.1.5.1.7l1.6 1.2c.2.2.5.1.7-.1h.1c-.1.3 0 .6.3.7l1.8.8c.3.1.6 0 .7-.3h.1c-.1.3.1.5.4.6l2 .4c.3.1.5-.1.6-.4h.1c0 .3.2.5.5.5h2c.3 0 .5-.2.5-.5h.1c.1.3.3.4.6.4l2-.4c.3-.1.4-.3.4-.6h.1c.1.3.4.4.7.3l1.8-.8c.3-.1.4-.4.3-.7h.1c.2.2.5.3.7.1l1.6-1.2c.2-.2.3-.5.1-.7l.1-.1c.2.2.5.2.7 0l1.4-1.5c.2-.2.2-.5 0-.7l.1-.1c.2.1.6.1.7-.2l1-1.8c.1-.2.1-.6-.2-.7v-.1c.3.1.6-.1.6-.3l.6-1.9c.1-.3-.1-.6-.3-.6v-.1c.3 0 .5-.2.6-.5l.2-2c0-.4-.2-.7-.5-.7zm-14.9 10c-5.5 0-10-4.5-10-10s4.5-10 10-10 10 4.5 10 10-4.5 10-10 10z"/><path id="XMLID_6593_" d="M450.8 307.2c-2.8 0-5.1 2.3-5.1 5.1s2.3 5.1 5.1 5.1 5.1-2.3 5.1-5.1-2.3-5.1-5.1-5.1zm0 9.7c-2.6 0-4.6-2.1-4.6-4.6 0-2.6 2.1-4.6 4.6-4.6s4.6 2.1 4.6 4.6c0 2.5-2 4.6-4.6 4.6z"/><circle id="XMLID_6592_" cx="450.8" cy="312.3" r="1.5"/><path id="XMLID_6591_" d="M450.6 305.8c.1.2.4.2.5 0l1.3-2.4c.1-.2 0-.4-.2-.4h-2.5c-.2 0-.3.2-.2.4l1.1 2.4z"/><path id="XMLID_6590_" d="M451 318.7c-.1-.2-.4-.2-.5 0l-1.3 2.4c-.1.2 0 .4.2.4h2.5c.2 0 .3-.2.2-.4l-1.1-2.4z"/><path id="XMLID_6589_" d="M442.4 309.1l2.7.1c.2 0 .4-.2.2-.4l-1.5-2.3c-.1-.2-.4-.2-.5 0l-1.3 2.2c0 .2.2.4.4.4z"/><path id="XMLID_6588_" d="M459.2 315.4l-2.7-.1c-.2 0-.4.2-.2.4l1.5 2.3c.1.2.4.2.5 0l1.3-2.2c0-.2-.2-.4-.4-.4z"/><path id="XMLID_6587_" d="M445.1 315.3l-2.7.1c-.2 0-.3.2-.2.4l1.3 2.2c.1.2.3.2.5 0l1.5-2.3c-.1-.2-.2-.4-.4-.4z"/><path id="XMLID_6586_" d="M456.3 308.8c-.1.2 0 .4.2.4l2.7-.1c.2 0 .3-.2.2-.4l-1.3-2.2c-.1-.2-.3-.2-.5 0l-1.3 2.3z"/><circle id="XMLID_6585_" cx="450.8" cy="308.8" r="0.5"/><circle id="XMLID_6584_" cx="450.8" cy="315.8" r="0.5"/><circle id="XMLID_6583_" cx="447.8" cy="310.6" r="0.5"/><circle id="XMLID_6582_" cx="453.8" cy="314" r="0.5"/><circle id="XMLID_6581_" cx="447.8" cy="314" r="0.5"/><circle id="XMLID_6580_" cx="453.8" cy="310.6" r="0.5"/></g><g id="XMLID_6460_"><path id="XMLID_6575_" d="M499.3 216.5h-.2V188c0-2-1.6-3.6-3.6-3.6H94.3c-2 0-3.6 1.6-3.6 3.6v97.7c0 1.5 1.2 2.6 2.6 2.6H499v-24.9h.2c3.7 0 6.7-3 6.7-6.7v-33.6c.1-3.6-2.9-6.6-6.6-6.6zm-5.9 66.1h-397V190h397v92.6zm10.6-25.8c0 2.6-2.1 4.7-4.7 4.7h-.2v-43h.2c2.6 0 4.7 2.1 4.7 4.7v33.6z"/><path id="XMLID_6574_" d="M359.7 254.1h29.8v3.8h-29.8z"/><path id="XMLID_6573_" d="M323.1 243.9h3.4v10.2h-3.4z"/><path id="XMLID_6572_" d="M326.5 254.1h29.8v3.8h-29.8z"/><path id="XMLID_6571_" d="M393 254.1h32.2v3.8H393z"/><path id="XMLID_6570_" d="M425.2 215.7h3.4v10.2h-3.4z"/><path id="XMLID_6569_" d="M292.5 243.9h3.4v10.2h-3.4z"/><path id="XMLID_6568_" d="M425.2 229.8h3.4V240h-3.4z"/><path id="XMLID_6567_" d="M425.2 243.9h3.4v10.2h-3.4z"/><path id="XMLID_6566_" d="M228.2 254.1h30.2v3.8h-30.2z"/><path id="XMLID_6565_" d="M156.9 215.7h3.4v10.2h-3.4z"/><path id="XMLID_6564_" d="M160.3 211.9h29.2v3.8h-29.2z"/><path id="XMLID_6563_" d="M156.9 229.8h3.4V240h-3.4z"/><path id="XMLID_6562_" d="M192.9 211.9h31.9v3.8h-31.9z"/><path id="XMLID_6561_" d="M425.2 204.4h3.4v7.5h-3.4z"/><path id="XMLID_6560_" d="M192.9 254.1h31.9v3.8h-31.9z"/><path id="XMLID_6559_" d="M295.9 254.1h27.3v3.8h-27.3z"/><path id="XMLID_6558_" d="M258.4 243.9h3.4v10.2h-3.4z"/><path id="XMLID_6557_" d="M160.3 254.1h29.2v3.8h-29.2z"/><path id="XMLID_6556_" d="M258.4 258h3.4v7.8h-3.4z"/><path id="XMLID_6555_" d="M130.9 240.1H157v3.8h-26.1z"/><path id="XMLID_6554_" d="M156.9 258h3.4v7.8h-3.4z"/><path id="XMLID_6553_" d="M389.6 204.4h3.4v7.5h-3.4z"/><path id="XMLID_6552_" d="M130.9 226H157v3.8h-26.1z"/><path id="XMLID_6551_" d="M261.8 254.1h30.7v3.8h-30.7z"/><path id="XMLID_6550_" d="M228.2 211.9h30.2v3.8h-30.2z"/><path id="XMLID_6549_" d="M130.9 211.9H157v3.8h-26.1z"/><path id="XMLID_6548_" d="M224.8 258h3.4v7.8h-3.4z"/><path id="XMLID_6547_" d="M189.5 258h3.4v7.8h-3.4z"/><path id="XMLID_6546_" d="M130.9 254.1H157v3.8h-26.1z"/><path id="XMLID_6545_" d="M323.1 204.4h3.4v7.5h-3.4z"/><path id="XMLID_6544_" d="M261.8 211.9h30.7v3.8h-30.7z"/><path id="XMLID_6543_" d="M295.9 211.9h27.3v3.8h-27.3z"/><path id="XMLID_6542_" d="M356.4 204.4h3.4v7.5h-3.4z"/><path id="XMLID_6541_" d="M258.4 204.4h3.4v7.5h-3.4z"/><path id="XMLID_6540_" d="M189.5 204.4h3.4v7.5h-3.4z"/><path id="XMLID_6539_" d="M156.9 204.4h3.4v7.5h-3.4z"/><path id="XMLID_6538_" d="M224.8 204.4h3.4v7.5h-3.4z"/><path id="XMLID_6537_" d="M156.9 243.9h3.4v10.2h-3.4z"/><path id="XMLID_6536_" d="M389.6 229.8h3.4V240h-3.4z"/><path id="XMLID_6535_" d="M389.6 215.7h3.4v10.2h-3.4z"/><path id="XMLID_6534_" d="M356.4 215.7h3.4v10.2h-3.4z"/><path id="XMLID_6533_" d="M356.4 229.8h3.4V240h-3.4z"/><path id="XMLID_6532_" d="M359.7 240.1h29.8v3.8h-29.8z"/><path id="XMLID_6531_" d="M228.2 226h30.2v3.8h-30.2z"/><path id="XMLID_6530_" d="M224.8 215.7h3.4v10.2h-3.4z"/><path id="XMLID_6529_" d="M261.8 226h30.7v3.8h-30.7z"/><path id="XMLID_6528_" d="M295.9 226h27.3v3.8h-27.3z"/><path id="XMLID_6527_" d="M258.4 229.8h3.4V240h-3.4z"/><path id="XMLID_6526_" d="M189.5 229.8h3.4V240h-3.4z"/><path id="XMLID_6525_" d="M192.9 240.1h31.9v3.8h-31.9z"/><path id="XMLID_6524_" d="M224.8 229.8h3.4V240h-3.4z"/><path id="XMLID_6523_" d="M192.9 226h31.9v3.8h-31.9z"/><path id="XMLID_6522_" d="M189.5 215.7h3.4v10.2h-3.4z"/><path id="XMLID_6521_" d="M359.7 226h29.8v3.8h-29.8z"/><path id="XMLID_6520_" d="M323.1 229.8h3.4V240h-3.4z"/><path id="XMLID_6519_" d="M292.5 229.8h3.4V240h-3.4z"/><path id="XMLID_6518_" d="M224.8 243.9h3.4v10.2h-3.4z"/><path id="XMLID_6517_" d="M389.6 243.9h3.4v10.2h-3.4z"/><path id="XMLID_6516_" d="M393 211.9h32.2v3.8H393z"/><path id="XMLID_6515_" d="M393 240.1h32.2v3.8H393z"/><path id="XMLID_6514_" d="M359.7 211.9h29.8v3.8h-29.8z"/><path id="XMLID_6513_" d="M393 226h32.2v3.8H393z"/><path id="XMLID_6512_" d="M292.5 215.7h3.4v10.2h-3.4z"/><path id="XMLID_6511_" d="M323.1 215.7h3.4v10.2h-3.4z"/><path id="XMLID_6510_" d="M326.5 211.9h29.8v3.8h-29.8z"/><path id="XMLID_6509_" d="M356.4 243.9h3.4v10.2h-3.4z"/><path id="XMLID_6508_" d="M228.2 240.1h30.2v3.8h-30.2z"/><path id="XMLID_6507_" d="M189.5 243.9h3.4v10.2h-3.4z"/><path id="XMLID_6506_" d="M258.4 215.7h3.4v10.2h-3.4z"/><path id="XMLID_6505_" d="M160.3 226h29.2v3.8h-29.2z"/><path id="XMLID_6504_" d="M160.3 240.1h29.2v3.8h-29.2z"/><path id="XMLID_6503_" d="M326.5 240.1h29.8v3.8h-29.8z"/><path id="XMLID_6502_" d="M295.9 240.1h27.3v3.8h-27.3z"/><path id="XMLID_6501_" d="M261.8 240.1h30.7v3.8h-30.7z"/><path id="XMLID_6500_" d="M326.5 226h29.8v3.8h-29.8z"/><path id="XMLID_6499_" d="M127.5 204.4h3.4v7.5h-3.4z"/><path id="XMLID_6498_" d="M160.3 200.6h29.2v3.8h-29.2z"/><path id="XMLID_6497_" d="M127.5 215.7h3.4v10.2h-3.4z"/><path id="XMLID_6496_" d="M127.5 243.9h3.4v10.2h-3.4z"/><path id="XMLID_6495_" d="M127.5 258h3.4v7.8h-3.4z"/><path id="XMLID_6494_" d="M428.6 211.9h26v3.8h-26z"/><path id="XMLID_6493_" d="M192.9 200.6h31.9v3.8h-31.9z"/><path id="XMLID_6492_" d="M359.7 200.6h29.8v3.8h-29.8z"/><path id="XMLID_6491_" d="M393 200.6h32.2v3.8H393z"/><path id="XMLID_6490_" d="M130.9 265.8H157v3.8h-26.1z"/><path id="XMLID_6489_" d="M428.6 200.6h26v3.8h-26z"/><path id="XMLID_6488_" d="M326.5 200.6h29.8v3.8h-29.8z"/><path id="XMLID_6487_" d="M228.2 200.6h30.2v3.8h-30.2z"/><path id="XMLID_6486_" d="M292.5 204.4v7.5h3.4v-7.5h27.2v-3.8h-61.3v3.8z"/><path id="XMLID_6485_" d="M127.5 229.8h3.4V240h-3.4z"/><path id="XMLID_6484_" d="M454.5 243.9h3.4v10.2h-3.4z"/><path id="XMLID_6483_" d="M454.5 258h3.4v7.8h-3.4z"/><path id="XMLID_6482_" d="M454.5 229.8h3.4V240h-3.4z"/><path id="XMLID_6481_" d="M160.3 265.8h29.2v3.8h-29.2z"/><path id="XMLID_6480_" d="M454.5 215.7h3.4v10.2h-3.4z"/><path id="XMLID_6479_" d="M428.6 265.8h26v3.8h-26z"/><path id="XMLID_6478_" d="M454.5 204.4h3.4v7.5h-3.4z"/><path id="XMLID_6475_" d="M491.8 191.7H98V281h393.8v-89.3zm-5.1 20.2H458v3.8h28.7V226H458v3.8h28.7V240H458v3.8h28.7V254H458v3.8h28.7v7.8H458v3.8h28.6v3.4H458v-3.4h-3.4v3.4h-26v-3.4h-3.4v3.4H393v-3.4h-3.4v3.4h-29.8v-3.4h-3.4v3.4h-29.8v-3.4h-3.4v3.4h-61.3v-3.4h-3.4v3.4h-30.2v-3.4h-3.4v3.4H193v-3.4h-3.4v3.4h-29.2v-3.4H157v3.4h-26.1v-3.4h-3.4v3.4h-25.8v-3.4h25.8v-3.8h-25.8V258h25.8v-3.8h-25.8V244h25.8v-3.8h-25.8V230h25.8v-4h-25.8v-10.2h25.8V212h-25.8v-7.5h25.8v-3.8h-25.8v-3.4h25.8v3.4h3.4v-3.4H157v3.4h3.4v-3.4h29.2v3.4h3.4v-3.4h31.9v3.4h3.4v-3.4h30.2v3.4h3.4v-3.4h61.3v3.4h3.4v-3.4h29.8v3.4h3.4v-3.4h29.8v3.4h3.4v-3.4h32.2v3.4h3.4v-3.4h26v3.4h3.4v-3.4h28.6v3.4H458v3.8h28.7v7.4z"/><path id="XMLID_6474_" d="M228.2 265.8h30.2v3.8h-30.2z"/><path id="XMLID_6473_" d="M192.9 265.8h31.9v3.8h-31.9z"/><path id="XMLID_6472_" d="M295.9 265.8V258h-3.4v7.8h-30.7v3.7h61.3v-3.7z"/><path id="XMLID_6471_" d="M359.7 265.8h29.8v3.8h-29.8z"/><path id="XMLID_6470_" d="M393 265.8h32.2v3.8H393z"/><path id="XMLID_6469_" d="M326.5 265.8h29.8v3.8h-29.8z"/><path id="XMLID_6468_" d="M130.9 200.6H157v3.8h-26.1z"/><path id="XMLID_6467_" d="M428.6 254.1h26v3.8h-26z"/><path id="XMLID_6466_" d="M323.1 258h3.4v7.8h-3.4z"/><path id="XMLID_6465_" d="M428.6 240.1h26v3.8h-26z"/><path id="XMLID_6464_" d="M389.6 258h3.4v7.8h-3.4z"/><path id="XMLID_6463_" d="M425.2 258h3.4v7.8h-3.4z"/><path id="XMLID_6462_" d="M428.6 226h26v3.8h-26z"/><path id="XMLID_6461_" d="M356.4 258h3.4v7.8h-3.4z"/></g><path id="XMLID_6459_" d="M226.5 288.3l35 11.4H278c0-3.8 3-6.8 6.8-6.8h45.7c3.8 0 6.8 3 6.8 6.8h15.1l.7-2.6c.2-1 1.1-1.6 2.1-1.6h22.4c1 0 1.8.7 2.1 1.6l.7 2.6h14.2l.7-2.6c.2-1 1.1-1.6 2.1-1.6h22.4c1 0 1.8.7 2.1 1.6l.7 2.6h14.2l.7-2.6c.2-1 1.1-1.6 2.1-1.6H462c1 0 1.8.7 2.1 1.6l.7 2.6h33.6c.4 0 .8-.3.8-.8v-.1H498c-.8 0-1.5-.7-1.5-1.5v-6.6c0-.8.7-1.5 1.5-1.5h1.2v-.9H226.5z"/><path id="XMLID_6458_" d="M497 291v.1c0 .2.1.3.3.3h1.8v-.8h-1.8c-.2.1-.3.3-.3.4z"/><path id="XMLID_6457_" d="M497 293.6v.1c0 .2.1.3.3.3h1.8v-.8h-1.8c-.2.1-.3.2-.3.4z"/><path id="XMLID_6456_" d="M497 296.1v.1c0 .2.1.3.3.3h1.8v-.8h-1.8c-.2.1-.3.3-.3.4z"/><path id="XMLID_8018_" d="M284.9 305.5c-3.2 0-5.8-2.6-5.8-5.8 0-3.2 2.6-5.8 5.8-5.8h45.7c3.2 0 5.8 2.6 5.8 5.8 0 3.2-2.6 5.8-5.8 5.8h-45.7z"/></g><metadata><rdf:RDF xmlns:rdf="http://www.w3.org/1999/02/22-rdf-syntax-ns#" xmlns:rdfs="http://www.w3.org/2000/01/rdf-schema#" xmlns:dc="http://purl.org/dc/elements/1.1/"><rdf:Description about="https://iconscout.com/legal#licenses" dc:publisher="Iconscout" dc:date="2017-10-30" dc:format="image/svg+xml" dc:language="en"><dc:creator><rdf:Bag><rdf:li>First Styles</rdf:li></rdf:Bag></dc:creator></rdf:Description></rdf:RDF></metadata></svg>