<svg xmlns="http://www.w3.org/2000/svg" enable-background="new 0 0 50 50" viewBox="0 0 50 50"><path d="M48.6,25.3c-0.5-0.7-1.8-2.1-4.7-2.7c-2.9-0.6-6.1-0.7-7.1-1c-1-0.3-6.7-3.3-8.4-3.6c-13.4-2.6-19.6,2.4-21.8,2.7
		c0,0-3.7,0.5-4.1,0.5c-0.1,0-0.4,0.4-0.7,1.1c1-0.4,0.8-0.2,3.2-0.5c-0.3,0.4-0.2,0.5,0.1,1l-3.9,1.5c-0.5,1.8-0.4,4.5,1.3,5.1
		c1,0.3,2.4,0.5,3.1,0.6c-0.5-2.6,1.6-5.4,4.5-5.4c3.2,0,5.3,3.1,4.4,5.9h9.4l12.3,0.3l0-0.1c-0.1-0.3-0.2-0.8-0.2-1.4
		c0-2.5,2.1-4.6,4.6-4.6c2.5,0,4.6,2.1,4.6,4.6c0,0.5-0.1,1-0.2,1.3c0.9,0,3.2-0.1,3.6-0.9C49.1,28.5,49.1,26,48.6,25.3z M12.7,19
		c1.6-0.5,4.5-0.9,4.6-0.9c1.3-0.1,2.7-0.2,3.8-0.2l1,3.6l0.9,0L21.7,18l0.3,0h0l0.2,0l1.3,3.6c-0.1,0-0.4,0-0.3,0v0l-0.2,0l0,0
		c-0.1,0-1,0-0.9,0l-9.5-0.4c-0.3-0.4-0.5-1.1-0.4-1.5C12.3,19.4,12.5,19.2,12.7,19z M35.2,22L33.3,22c0.2-0.1,0.1-0.4,0.1-0.5
		c0,0,0,0,0,0c-0.1-0.2-0.4-0.5-0.8-0.7c0,0,0,0,0,0c-0.1,0-0.3-0.1-0.4-0.1c-0.6,0-1,0.7-0.9,1.2l-7-0.3L22.9,18
		c1.7,0.1,3.5,0.3,5.4,0.7C29.8,19,34.1,20.7,35.2,22z M11.2,23c0,0.2-0.1,0.3-0.3,0.3H9.4c-0.2,0-0.3-0.1-0.3-0.3v-0.6
		c0-0.2,0.1-0.3,0.3-0.3h1.5c0.2,0,0.3,0.1,0.3,0.3V23z M14.3,23.5c-0.3,0-0.3-0.2-0.3-0.4h1.5v-0.4H14c0-0.2,0-0.3,0.3-0.3
		c0.3,0,1.9,0.3,1.9,0.6S14.6,23.5,14.3,23.5z M25.2,23.8c-0.3,0-0.3-0.2-0.3-0.4h1.5v-0.5h-1.5c0-0.2,0-0.3,0.3-0.3
		c0.3,0,1.9,0.3,1.9,0.6C27.1,23.5,25.5,23.8,25.2,23.8z M44.2,23.6c3.8,0.2,4.3,2.3,4.3,2.3c-0.3-0.3-2.3-0.5-2.3-0.5
		C46.1,24.9,44.2,23.6,44.2,23.6z M48.1,28.1V29c0,0-0.3,0-0.5,0c-0.2-0.1-0.1-1.3-0.1-1.3l1.1,0.1v0.4H48.1z"/><path d="M10.1 25.5c-2 0-3.6 1.6-3.6 3.6v.1c0 2 1.6 3.6 3.6 3.6s3.6-1.6 3.6-3.6C13.7 27.1 12.1 25.5 10.1 25.5zM12.6 29.4c-.6-.2-1.1-.4-1.7-.5 0 0 0 0 0-.1 0 0 .1-.1.1-.1.3-.4.6-.9 1-1.3C12.4 27.9 12.7 28.6 12.6 29.4zM8.5 27.3c.3.4.6.8.9 1.3 0 .1.1.1.1.2 0 0-.1.1-.1.1-.6.1-1.2.3-1.8.5C7.6 28.6 7.9 27.8 8.5 27.3zM11.1 26.9c-.3.5-.6 1-.9 1.5 0 0-.1 0-.1 0h0c-.3-.5-.6-1-.9-1.5C9.8 26.6 10.5 26.6 11.1 26.9zM9.5 29.6c0 .1.1.2.2.2 0 .6-.1 1.2-.2 1.8-.7-.2-1.4-.6-1.7-1.3C8.5 30 9 29.8 9.5 29.6zM10.5 29.8c.1 0 .1-.1.2-.2.6.2 1.1.5 1.6.7-.4.7-1 1.2-1.8 1.3C10.5 30.9 10.5 30.4 10.5 29.8zM40.6 25.5c-2.4 0-4.1 2.3-3.5 4.5.4 1.5 1.8 2.7 3.5 2.7 1.8 0 3.2-1.3 3.5-2.9C44.6 27.7 42.9 25.5 40.6 25.5zM43 29.4c-.6-.2-1.2-.4-1.7-.5 0 0 0 0 0-.1.4-.5.7-1 1-1.5C42.8 27.9 43.1 28.6 43 29.4zM38.9 27.3c.4.5.7 1 1 1.4 0 0-.1.1-.1.1-.6.1-1.2.3-1.8.5C38.1 28.6 38.3 27.8 38.9 27.3zM41.6 26.9c-.3.5-.6 1-.9 1.5 0 0-.1 0-.1 0-.3-.5-.6-1-.9-1.5C40.3 26.6 41 26.6 41.6 26.9zM40 29.6c0 .1.1.2.2.2 0 0 0 .1 0 .1 0 .6-.1 1.1-.2 1.7-.7-.2-1.3-.6-1.7-1.3C38.7 30.1 39.6 29.7 40 29.6zM41 29.8C41 29.8 41 29.8 41 29.8c.1-.1.2-.2.2-.2.7.3 1.2.5 1.6.7-.3.7-1 1.2-1.8 1.3C41 31 41 30.4 41 29.8z"/></svg>