<svg xmlns="http://www.w3.org/2000/svg" enable-background="new 0 0 50 50" viewBox="0 0 50 50"><path d="M35.6 18.6L35.6 18.6C35.6 18.6 35.7 18.6 35.6 18.6 35.7 18.6 35.6 18.6 35.6 18.6zM49 26.3c-.5-2.4.1-2.8-.5-3.2-.2-.1 0-.9-.2-1.3 0 .4-.2.8-.4.9-.4.2-2.1.2-2.2.1-.2-.1-1.5 0-1.5 0s-1.5-.5-.4-.8c1.2-.3 1.9.2 2.4.4.4.2 1.5 0 1.8-.1.1-.1.1-.5 0-.7-.2-.2-2.3-.7-3-.9.5.7-.8.2-1.3.2-.6 0-8-2-8-2v-.4c-1-.2-8.2-1.5-13-.2.3.2.7.4.9.4 0 0-5.5 2-7.6 3.1 0 0-2.3.3-.8-.6-.4.1-2.5-.7-7.4 1.3 0 0-6.5 1.7-6.7 2.6 0 0 0 0 0 0l.6 0 3.2-.3c0 0-.7.7-.8.9 0 0-2.2.4-2.4.5-.1 0-.3-.1-.7-.2 0 .9.2 1.8.3 1.9.2.1.1.8.1.8s0 .5.8.8c.6.2 2.4.6 3.3.7-.3-.6-.4-1.3-.4-2 0-2.6 2.2-4.8 4.8-4.8 2.6 0 4.8 2.2 4.8 4.8 0 .7-.2 1.4-.5 2 4.5 0 1.1 0 22-.1-.3-.6-.4-1.3-.4-2 0-2.6 2.2-4.8 4.8-4.8 2.6 0 4.8 2.2 4.8 4.8 0 .6-.1 1.1-.3 1.7.4 0 2.5-.7 3.1-2C48.9 26.6 49.1 26.8 49 26.3zM27 23.1c-.7-.1-8.3.7-8.9.6-.6-.1-.8-.5 1.5-2 4.4-2.9 9.8-2.6 13.7-1.8L33 22.8C30.5 22.9 27.4 23.1 27 23.1zM33 24l-1.3 0c-.1 0-.3-.1-.3-.3 0-.2.1-.3.3-.3l1.3 0c.1 0 .3.1.3.3C33.2 23.8 33.1 23.9 33 24zM33.7 22.7L33.6 20c2.9.7 4.8 1.6 4.9 1.6C38.3 22.5 37.7 22.4 33.7 22.7z"/><path d="M19.6 22.7v.9h1c.3 0 .1-.4.2-1.6C20.7 21.6 19.6 21.8 19.6 22.7zM9.8 24.6c-2.1 0-3.8 1.7-3.8 3.8s1.7 3.8 3.8 3.8c2.1 0 3.8-1.7 3.8-3.8S11.9 24.6 9.8 24.6zM12.2 27.4l-1.8.8c0-.1-.1-.2-.2-.3l1.3-1.5C11.8 26.7 12.1 27 12.2 27.4L12.2 27.4zM7.2 27.8l1.9.4c0 0 0 .1 0 .2 0 .1 0 .1 0 .2L7.2 29C7.1 28.6 7.1 28.2 7.2 27.8zM9.8 27.8l.2-2c.4 0 .8.2 1.2.4l-1 1.7C10.1 27.8 10 27.8 9.8 27.8zM9.8 27.8c-.1 0-.2.1-.3.1l-1-1.7c.3-.2.8-.4 1.2-.4L9.8 27.8zM9.8 29.1l-.2 2c-.4 0-.8-.2-1.1-.4l1-1.7C9.5 29 9.7 29.1 9.8 29.1zM9.8 29.1c.1 0 .2 0 .3-.1l1 1.7C10.8 30.9 10.4 31 10 31L9.8 29.1zM8.1 26.4l1.3 1.5c-.1.1-.2.2-.2.3l-1.8-.8C7.5 27 7.8 26.7 8.1 26.4zM9.2 28.6c0 .1.1.2.2.3l-1.3 1.5c-.3-.3-.6-.6-.7-1L9.2 28.6zM11.5 30.4l-1.3-1.5c.1-.1.2-.2.2-.3l1.8.8C12.1 29.8 11.9 30.1 11.5 30.4zM12.4 29l-1.9-.4c0-.1 0-.1 0-.2 0-.1 0-.1 0-.2l1.9-.4c.1.2.1.4.1.6S12.4 28.8 12.4 29zM40.6 24.6c-2.1 0-3.8 1.7-3.8 3.8s1.7 3.8 3.8 3.8c2.1 0 3.8-1.7 3.8-3.8S42.7 24.6 40.6 24.6zM43 27.4l-1.8.8c0-.1-.1-.2-.2-.3l1.3-1.5C42.6 26.7 42.9 27 43 27.4L43 27.4zM37.9 28.4c0-.2 0-.4.1-.6l1.9.4c0 .1 0 .2 0 .4L38 29C38 28.8 37.9 28.6 37.9 28.4zM40.6 27.8l.2-2c.4 0 .8.2 1.2.4l-1 1.7C40.9 27.8 40.7 27.8 40.6 27.8zM40.6 27.8c-.1 0-.2.1-.3.1l-1-1.7c.3-.2.8-.4 1.2-.4L40.6 27.8zM40.6 29.1l-.2 2c-.4 0-.8-.2-1.2-.4l1-1.7C40.3 29 40.4 29.1 40.6 29.1zM40.6 29.1c.1 0 .2 0 .3-.1l1 1.7c-.4.2-.8.4-1.2.4L40.6 29.1zM38.8 26.4l1.3 1.5C40.1 28 40 28.1 40 28.2l-1.8-.8C38.3 27 38.5 26.7 38.8 26.4zM40 28.6c0 .1.1.2.2.3l-1.3 1.5c-.3-.3-.6-.6-.7-1L40 28.6zM42.3 30.4L41 28.9c.1-.1.2-.2.2-.3l1.8.8C42.9 29.8 42.6 30.1 42.3 30.4zM43.2 29l-2-.4c0-.1 0-.2 0-.4l2-.4c0 .2.1.4.1.6S43.2 28.8 43.2 29z"/></svg>