<svg xmlns="http://www.w3.org/2000/svg" enable-background="new 0 0 50 50" viewBox="0 0 50 50"><path d="M44.5 23.2c0 .1.1.1.2.2C44.6 23.3 44.5 23.2 44.5 23.2 44.5 23.2 44.5 23.1 44.5 23.2 44.5 23.1 44.5 23.2 44.5 23.2zM41.2 25.9c-2.2 0-3.9 1.8-3.9 3.9s1.7 3.9 3.9 3.9c2.1 0 3.9-1.7 3.9-3.9S43.4 25.9 41.2 25.9zM41.2 32.8c-1.6 0-3-1.3-3-3 0-1.7 1.3-3 3-3 1.6 0 3 1.3 3 3C44.2 31.4 42.9 32.8 41.2 32.8zM11.2 29.8c0 .7-.6 1.3-1.3 1.3-.7 0-1.3-.6-1.3-1.3 0-.8.6-1.3 1.3-1.3C10.6 28.4 11.2 29 11.2 29.8zM33.2 22l-2.5-.1c-.1-.1-.2-.2-.2-.3 0 0 0 0 0-.1 0-.3.1-.8.3-1 .1-.1.2-.1.4-.1.4.1 1.5.3 1.9 1.2 0 0 0 0 0 .1C33.1 21.7 33.1 21.9 33.2 22zM15 29.8l7 .2 0-.1c0 0 .1-.4.1-1l-7.4-.3C14.9 29 15 29.3 15 29.8zM22.6 30l12 .3c0-.2.1-.9.1-1l-12-.4C22.7 29.4 22.7 29.8 22.6 30z"/><path d="M48.8,28c-0.1-0.2,0-0.6,0.1-1.5c0-0.6,0-0.9-0.7-1.6c-0.1,0.1-0.9,0.2-1.4,0c-0.2-0.1-3.1-1.6-2.2-2.2
				c-3-0.9-8.3-1.2-8.3-1.2c-1.6,0.9-4-1.2-7.3-3.8c-2.1-0.9-4.7-1.2-5.3-1.3c-10.4-0.7-18.2,0.9-17.8,0.8c-0.5,0.6,0.9,0.8,1.1,1h0
				c0.2,0.2-2.2,1.3-3.7,2.3c-0.3,0.2-0.6,0.5-0.8,0.8c0,0,0,0,0,0c1.4-0.3,2,0.8,3.1,1.3c0,0-1.4,0.6-2,0.5
				c-0.7-0.1-1.3,0.2-1.8,0.5c0,0,0,0,0,0v0.1c0,1.3-0.6,2-0.7,2.3c-0.1,0.3,0,1.7,0.1,1.9c0.5,0.2,1.5,0.6,3.4,0.8
				c0,0,0.6-3.1,3.4-4c1.1-0.3,2.2-0.4,3.3-0.1c-0.1-0.3-0.2-0.9-0.3-1.6c-0.2-1.9,1.2-1.9,1.2-2.5v0l-3.7-0.2c0,0-2.4-1.1,4.1-3.1
				c1.8-0.6,5.8-0.6,8.5-0.5l0.1,4.3l-8.5-0.5c0.1,0.9-1.3,0.7-1.2,2.4c0.1,0.6,0.2,1.2,0.4,1.8c1,0.4,1.7,1.1,2,1.5
				c0.3,0.4,0.6,0.9,0.9,1.5l7.7,0.3c0.4-5-0.5-6.9-0.5-7l0,0c0-0.3-0.3-3.2-0.3-3c0-0.3,0-0.5-0.1-1.4c0.2,0,0.4,0,0.5,0
				c0.1,1-0.3-1.4,0.8,6h2.4V23c0,0.2-0.2,0.3-0.3,0.3h-0.3c0,0.2-0.2,0.3-0.3,0.3h-0.4c-0.2,0-0.3-0.1-0.3-0.3h-0.5
				c-0.1,0-0.3-0.1-0.3-0.2c0.3,1.9,0.2,3.9,0.1,5.3l12,0.4c0.2-1.4,0.3-3.2,0.3-4.5c-0.1-2.2-1.6-2.4-1.9-2.4
				c0-0.1-0.1-0.2-0.2-0.3c0,0,0,0,0-0.1c-0.4-0.8-1.5-1.1-1.9-1.2c-0.1,0-0.3,0-0.4,0.1c-0.3,0.2-0.4,0.7-0.3,1c0,0,0,0.1,0,0.1
				c0,0.1,0.1,0.2,0.2,0.3l-7.3-0.4l-1-4.4c0.7,0,1.2,0.1,1.4,0.1c0.7,0,4.4,0.5,6.4,1.8c0,0-0.5-0.3,4.1,2.6
				c1.3,1.2,1.5,2.1,1.5,2.8c0.1,1.3-0.1,3.1-0.3,4.5l1.1,0c0.3-1,0.9-2.3,2.3-3.2c3.5-2.3,7.9,1,7.3,4.6c0,0.1,0,0.1,0,0.1
				s1.3,0.1,2.4-0.2c0.2-0.2,0.3-0.4,0.4-0.6C49.1,28.8,49,28.2,48.8,28z M14.3,22.5c0,0.2-0.1,0.3-0.3,0.3h-0.3
				c0,0.2-0.2,0.3-0.3,0.3H13c-0.2,0-0.3-0.1-0.3-0.3h-0.5c-0.2,0-0.3-0.2-0.3-0.3v-0.1L14.3,22.5L14.3,22.5z M48.6,27.9
				c-0.6,0-1.1-0.5-1.1-1.1v-0.6c0-0.6,1.1-0.6,1.1-0.1V27.9z"/><path d="M35.1 30.3l1 0c0 0 0-.4.1-1l-1 0C35.3 29.4 35.3 29.1 35.1 30.3zM9.9 25.9c-2.1 0-3.9 1.8-3.9 3.9s1.8 3.9 3.9 3.9c2.1 0 3.9-1.7 3.9-3.9S12 25.9 9.9 25.9zM9.9 32.6c-1.5 0-2.8-1.3-2.8-2.8S8.3 27 9.9 27c1.5 0 2.8 1.3 2.8 2.8S11.4 32.6 9.9 32.6z"/><path d="M11.2,29.8c0,0.7-0.6,1.3-1.3,1.3c-0.7,0-1.3-0.6-1.3-1.3c0-0.8,0.6-1.3,1.3-1.3C10.6,28.4,11.2,29,11.2,29.8z"/><path d="M11.7 29.8c0 1-.8 1.9-1.9 1.9-1 0-1.9-.8-1.9-1.9 0-1 .8-1.9 1.9-1.9C10.9 27.9 11.7 28.7 11.7 29.8zM43.1 29.8c0 1-.8 1.9-1.9 1.9-1 0-1.9-.8-1.9-1.9 0-1 .8-1.9 1.9-1.9C42.3 27.9 43.1 28.7 43.1 29.8z"/></svg>