<svg xmlns="http://www.w3.org/2000/svg" id="Layer_1" enable-background="new 0 0 50 50" viewBox="0 0 50 50"><path fill="#fc4" d="M36.1,10.4v4.4c0.9-0.4,1.5-1.2,1.5-2.2C37.6,11.6,37,10.7,36.1,10.4z"/><path fill="#333" d="M5.2,26c-0.1,0.1-0.1,0.1-0.6,0.5c-0.1,0-0.1,0-0.2,0c-0.5,1.1-1.4,3.1-1.4,3.8c-0.1,0.9-1.5,2.1-1.9,2.3
		c0,0,0.8,0.4,2.4-1.2c0.8-0.8,2.4-4.6,4.4-4.7L5.2,26z"/><path fill="#11aae4" d="M36.6,10.6v4.1c0,0-0.3,0.1-0.6,0.3c-0.3,0.2-0.6,0.5-0.5,0.8c0.3,0.6-3.4,2-3.4,2l-0.1-0.3
		c0,0-1.3-3-1.3-3.5c0-0.5,0.1-2.4,2-3.2C34,10.2,35.4,10,36.6,10.6z"/><path fill="#4e4e4e" d="M36.6,10.6v4.1c0,0-0.3,0.1-0.6,0.3c0.2-2.3-0.3-3.9-0.6-4.7C35.9,10.3,36.3,10.4,36.6,10.6z"/><circle cx="30.9" cy="12.8" r=".9" fill="#444"/><circle cx="30.9" cy="12.8" r=".6" fill="#444"/><path fill="#4e4e4e" d="M30.5,12.4l-1.1,0.3l0.3,1l1.4-0.5C31.7,12.8,31,12,30.5,12.4z"/><circle cx="29.7" cy="13.2" r=".5" fill="#444"/><circle cx="29.6" cy="13.2" r=".4" fill="#4e4e4e"/><circle cx="29.5" cy="13.2" r=".2" fill="#565555"/><path fill="#333" d="M23.5,34.3c-0.1,0.4-0.4,0.8-1,1.4c-2.1,1.8-7.2,1.6-7.6,1.2c-0.5-0.4-1.1-2.8-1.8-3.5c-0.7-0.7-2.8-0.8-3-1.6
		c-0.2-0.7,0.9-3.4,1.2-4.3l2.7,0.4c0,0,1.5,0,2.3,1.6s2.2,3.4,3.9,3.9C21,33.8,22.2,34.1,23.5,34.3z"/><path fill="#444" d="M37.2,30.9c0,0-0.6,5-3.3,5.7c-2.3,0.7-8.6,0.3-10.6,0.2c-0.4,0-0.7-0.2-1-0.5c-0.7-0.9-2.1-2.9-2.1-3.3
		c-0.1-0.6,6.1,0.2,6.1,0.2l4.6,0.5l4.1-0.2L37.2,30.9z"/><path fill="#4e4e4e" d="M38.3,24.1c-0.1,0.1-1.3,6.6-1.3,6.6s-1.6,2.5-1.8,2.7c-0.2,0.2-5.4,0.8-5.4,0.8L22.5,32c0,0-4.1-1.9-4.2-2.3
		c-0.1-0.5-2.8-6.9-2.8-6.9l-5-2.8l-0.8-1.5c0,0,0.3-0.9,1.3-0.7c1,0.2,4.7,1.6,6.7,1.6s4.7,0.4,5.5,0.3c0.7,0,2.5,0.5,3,3.4
		c0.1,0.6-0.6,0.7-0.6,0.7s-0.2,1,0,1.3c0.5,0.9-1.3,3.9-0.1,5.2c0.9,0.9,0.1,1.1,1.8,1.3c1.7,0.2,5.6,0.5,5.6,0.5s2.2-5.7,1.2-8.4
		c-0.9-2.7-2-5.9-2-5.9l0.3-0.2l0.2-0.1l2.9-1.7l1.7,3.5C37.2,19.2,38.4,24,38.3,24.1z"/><path fill="#444" d="M33.2 32.7C33.2 32.7 33.2 32.7 33.2 32.7c-9.7-1-6.8-.5-8.3-2.1-1.4-1.6.2-4.3 0-5.3-.3-.6 0-2.1.1-2.1l.4-.1c-.4-2.2-1.7-2.8-2.3-2.8-6.9-.6-5.3.2-10.9-1.5-1.4-.4-1.6-.5-1.8-.3.5 1 .7 1.1.6 1.2-.2.1-.2-.2-.8-1.2 0 0 0-.1 0-.1.6-.8 4.4 1.4 7.4 1.4 1.1 0 2.4.1 3.5.2 1.8.1 3.9-.4 4.5 3.1 0 .2-.2.1-.5.2 0 .1-.3 1.4 0 1.9-.1 1.9-1.2 4-.1 5.3 1.4 1.5-1.3 1.1 8.1 2 2.9-7.8 1.4-8.9-.8-15l.2-.1c.4 1.1 1.4 3.8 2.2 6C35.7 26.2 33.5 32.7 33.2 32.7zM43.3 28.3c-3.2 0-5.7 2.6-5.7 5.7 0 3.2 2.6 5.7 5.7 5.7 3.2 0 5.7-2.6 5.7-5.7C49 30.8 46.4 28.3 43.3 28.3zM47.1 34.6c-.1.8-.4 1.4-.8 2-.2.2-.4.4-.6.6-.6.5-1.3.8-2 .9-.2 0-.3 0-.5 0-.1 0-.2 0-.3 0-.8-.1-1.5-.4-2.1-.8-.2-.2-.4-.4-.6-.6-.5-.6-.8-1.3-.9-2.1 0-.1 0-.3 0-.4s0-.3 0-.4c.1-.8.4-1.5.9-2.1.2-.2.4-.4.6-.6.6-.5 1.3-.8 2.1-.8.1 0 .2 0 .3 0 .2 0 .3 0 .5 0 .8.1 1.5.4 2 .9.2.2.4.4.6.6.4.6.7 1.3.8 2 0 .1 0 .3 0 .4S47.1 34.5 47.1 34.6z"/><path fill="#a1a1a1" d="M47.1,34.6h-2.8l2,2c-0.2,0.2-0.4,0.4-0.6,0.6l-2-2V38c-0.2,0-0.3,0-0.5,0c-0.1,0-0.2,0-0.3,0v-2.9l-2.1,2.1
		c-0.2-0.2-0.4-0.4-0.6-0.6l2.1-2.1h-2.9c0-0.1,0-0.3,0-0.4s0-0.3,0-0.4h2.9l-2.1-2.1c0.2-0.2,0.4-0.4,0.6-0.6l2.1,2.1v-2.9
		c0.1,0,0.2,0,0.3,0c0.2,0,0.3,0,0.5,0v2.9l2-2c0.2,0.2,0.4,0.4,0.6,0.6l-2,2h2.8c0,0.1,0,0.3,0,0.4S47.1,34.5,47.1,34.6z"/><circle cx="43.2" cy="34.2" r="1.5" fill="#848381"/><path fill="#333" d="M43.7,35c-0.2,0.2-0.6,0.1-0.7-0.1l-4.9-7l1.5-0.9l4.3,7.4C44.1,34.5,44,34.9,43.7,35z"/><circle cx="43.4" cy="34.5" r=".2" fill="#a1a1a1"/><path fill="#0a9cc9" d="M47.5,27.9c0,0-1.1-4.2-6.7-3.6c0,0-1.9,1.2-2,1.4c0,0.1-0.7,3-0.8,3.3c-0.1,0.3-0.3,2.3-0.3,2.3
		s2.3-4.1,8.6-3.1C46.3,28.1,47.2,28.1,47.5,27.9z"/><path fill="#11aae4" d="M40.6,24.5c-0.7,1.2-0.6,0.9-2.9,6.8c-1.7,4.6-6,4.2-11.3,3.5c-2.3-0.3-4.8-0.7-6.4-1.3
		c-1.6-0.6-3-2.3-3.9-3.9c0,0,0,0,0,0c-0.2-0.5-0.5-0.8-0.8-1c-0.5-0.2-1.1-0.4-1.7-0.6c-0.8-0.1-9.4-1.3-9.3-1.3
		c0.2-0.1,0.7-1.3,1.1-2.4c0.3-0.8,0.6-1.5,0.6-1.5L8.5,21l-0.2-0.6l0.9-0.2l-1.1-3h0.8l1.9,2.1l3.8,1l1,1l10.1,2.4l0.3,1.1
		l-4.1,2.9c-0.4,1.6-1.1,2.9,0.6,3.7c0.3,0.1,7.7,2.1,10.7,1.6c3-0.5,3.5-5,4.1-7.2c0.7-2.8-1.5-6.6-2-7.9c-0.4-0.9-0.1-1.7,0.1-2.1
		c0.1-0.2,0.3-0.3,0.5-0.3h0.5c3.3,1.9,4.3,5.5,4.5,7.3C41.1,23.4,40.9,23.9,40.6,24.5z"/><path fill="#444" d="M9.2,28.3c-3.2,0-5.7,2.6-5.7,5.7c0,3.2,2.6,5.7,5.7,5.7c3.2,0,5.7-2.6,5.7-5.7C14.9,30.8,12.4,28.3,9.2,28.3
		z M13,34.6c-0.1,0.8-0.4,1.4-0.8,2c-0.2,0.2-0.4,0.4-0.6,0.6c-0.6,0.5-1.3,0.8-2,0.9c-0.2,0-0.3,0-0.5,0c-0.1,0-0.2,0-0.3,0
		C8,38,7.3,37.7,6.8,37.2c-0.2-0.2-0.4-0.4-0.6-0.6c-0.5-0.6-0.8-1.3-0.9-2.1c0-0.1,0-0.3,0-0.4s0-0.3,0-0.4
		c0.1-0.8,0.4-1.5,0.9-2.1c0.2-0.2,0.4-0.4,0.6-0.6c0.6-0.5,1.3-0.8,2.1-0.8c0.1,0,0.2,0,0.3,0c0.2,0,0.3,0,0.5,0
		c0.8,0.1,1.5,0.4,2,0.9c0.2,0.2,0.4,0.4,0.6,0.6c0.4,0.6,0.7,1.3,0.8,2c0,0.1,0,0.3,0,0.4S13,34.5,13,34.6z"/><path fill="#a1a1a1" d="M13,34.6h-2.8l2,2c-0.2,0.2-0.4,0.4-0.6,0.6l-2-2V38c-0.2,0-0.3,0-0.5,0c-0.1,0-0.2,0-0.3,0v-2.9l-2.1,2.1
		c-0.2-0.2-0.4-0.4-0.6-0.6l2.1-2.1H5.3c0-0.1,0-0.3,0-0.4s0-0.3,0-0.4h2.9l-2.1-2.1c0.2-0.2,0.4-0.4,0.6-0.6l2.1,2.1v-2.9
		c0.1,0,0.2,0,0.3,0c0.2,0,0.3,0,0.5,0v2.9l2-2c0.2,0.2,0.4,0.4,0.6,0.6l-2,2H13c0,0.1,0,0.3,0,0.4S13,34.5,13,34.6z"/><path fill="#848381" d="M9.2,35.7c-2,0-2-3.1,0-3.1C11.2,32.6,11.2,35.7,9.2,35.7z"/><path fill="#11aae4" d="M22.3,36.3c-0.9,0.4-3.7,1.2-6.9,0.8c-0.2,0-0.4-0.1-0.6-0.3c-0.3-0.3-0.4-0.8-1-0.9c-1-0.1-4.1,0-7-1
		c-2.9-1-4.2-2-4-2.5c0.5-2.1,6.1-1,8.2,0c3.8,1.8,3.4,2.6,3.6,3c0.3,0.4,3.4,2.1,7.4,0.4C22,35.9,22.1,36.1,22.3,36.3z"/><path fill="#0a9cc9" d="M6.8,34.5c-4.6-1.1-4-3.9,0.7-2.8C12.2,32.9,11.4,35.6,6.8,34.5z"/><path fill="#0896b7" d="M9.4,33.7c-0.3,1.5-5.9,0.2-5.6-1.3c0.1-0.6,1.5-0.8,3-0.5C8.4,32.3,9.5,33,9.4,33.7z"/><path fill="#fff" d="M10,33.9c-0.2,0-0.3-0.1-0.3-0.3c0-0.2,0.1-0.3,0.3-0.3C10.4,33.2,10.4,33.9,10,33.9z"/><circle cx="5.6" cy="32.5" r=".3" fill="#fff"/><path fill="#d73149" d="M9.7,21.5l-2.5,2.3l-1.7,0.4c0.3-0.8,0.6-1.5,0.6-1.5L8.5,21L9.7,21.5z"/></svg>