<svg xmlns="http://www.w3.org/2000/svg" id="Layer_1" enable-background="new 0 0 50 50" viewBox="0 0 50 50"><polygon fill="#333" points="23.4 33.4 27.7 30.7 27.6 30.4 23.1 32.8"/><path fill="#3e433f" d="M26.9,30.8l0.2,0.3c0.1,0.1,0.3,0.2,0.4,0.1l1.5-1c0.1-0.1,0.2-0.3,0.1-0.4l-0.2-0.3
			c-0.1-0.1-0.3-0.2-0.4-0.1l-1.5,1C26.8,30.5,26.8,30.7,26.9,30.8z"/><path fill="#d73149" d="M2,27.1c-0.2,0.3-0.3,0.6-0.5,1c-0.1,0.3,0.4,0.6,0.3,0.9H1.2c-0.1,0-0.2-0.1-0.2-0.2v-1.5
		c0-0.1,0.1-0.2,0.2-0.2H2z"/><rect width=".3" height="11.5" x="9.5" y="20.2" fill="#a5903a" transform="rotate(-12.246 9.654 25.97)"/><polygon fill="#d8d8d6" points="19.1 20.5 17.2 15.3 17.8 15.1 19.7 20.3"/><rect width=".3" height=".9" x="28.5" y="25.6" fill="#b5a241" transform="rotate(-48.333 28.69 26.036)"/><polygon fill="#d8d8d6" points="34.1 16.4 33 16.4 33 16.1 33.9 16.1 35 14.8 35.4 14.8 35.4 14.5 35.7 14.5 35.7 15.1 35.1 15.1"/><path fill="#c5c5c5" d="M31.4,12.9L30,12.5c0,0,0,0-0.1,0l-1.4,0.3l-0.1-0.5l1.4-0.3c0.1,0,0.2,0,0.3,0l1.4,0.4c0,0,0.1,0,0.1,0
			l1-1.3c0-0.1,0-0.1,0-0.2c-1.2-0.6-1.4-0.7-1.5-0.7l-1.4,0.1l0-0.6l1.4-0.1c0.3,0,0.4,0.1,1.8,0.8c0.4,0.2,0.5,0.7,0.2,1l-1,1.3
			C31.9,12.9,31.6,13,31.4,12.9z"/><path fill="#d8d8d6" d="M33.5,15.9L33,16.1l-1.5-3.9c0-0.1,0-0.2,0.1-0.2l0.2-0.1c0.1,0,0.2,0,0.2,0.1L33.5,15.9z"/><rect width=".1" height="15.6" x="40.2" y="24" fill="#c5c5c5"/><rect width="15.6" height=".1" x="32.4" y="31.7" fill="#c5c5c5"/><rect width="15.6" height=".1" x="32.4" y="31.7" fill="#c5c5c5" transform="rotate(-45.001 40.233 31.802)"/><rect width=".1" height="15.6" x="40.2" y="24" fill="#c5c5c5" transform="rotate(-45.001 40.233 31.802)"/><rect width=".1" height="15.6" x="40.2" y="24" fill="#c5c5c5" transform="rotate(-22.5 40.23 31.8)"/><rect width="15.6" height=".1" x="32.4" y="31.7" fill="#c5c5c5" transform="rotate(-22.508 40.234 31.802)"/><rect width="15.6" height=".1" x="32.4" y="31.7" fill="#c5c5c5" transform="rotate(-67.536 40.232 31.802)"/><rect width=".1" height="15.6" x="40.2" y="24" fill="#c5c5c5" transform="rotate(-67.5 40.233 31.8)"/><path fill="#4e514e" d="M45.8,23.7c-2.7-1.6-5.8-1.8-8.1-1c-0.9,0.3-1.7,0.6-2.5,1.1c-3.2,2-5,5.6-4.7,9.5
		c-0.8-3.5,0.6-7.6,4.3-10.1C38.1,21.1,42.6,21.1,45.8,23.7z"/><path fill="#333" d="M40.2,23c-4.8,0-8.8,3.9-8.8,8.8c0,4.8,3.9,8.8,8.8,8.8c4.8,0,8.8-3.9,8.8-8.8C49,27,45.1,23,40.2,23z
		 M40.2,39.6c-4.3,0-7.8-3.5-7.8-7.8c0-4.3,3.5-7.8,7.8-7.8c4.3,0,7.8,3.5,7.8,7.8C48,36.1,44.5,39.6,40.2,39.6z"/><circle cx="40.2" cy="31.8" r="1" fill="#a1a1a1"/><rect width=".1" height="15.6" x="11" y="24" fill="#c5c5c5"/><rect width="15.6" height=".1" x="3.3" y="31.7" fill="#c5c5c5"/><rect width="15.6" height=".1" x="3.3" y="31.7" fill="#c5c5c5" transform="rotate(-45.001 11.098 31.802)"/><rect width=".1" height="15.6" x="11" y="24" fill="#c5c5c5" transform="rotate(-45.001 11.098 31.802)"/><rect width=".1" height="15.6" x="11" y="24" fill="#c5c5c5" transform="rotate(-22.5 11.097 31.8)"/><rect width="15.6" height=".1" x="3.3" y="31.7" fill="#c5c5c5" transform="rotate(-22.508 11.099 31.802)"/><rect width="15.6" height=".1" x="3.3" y="31.7" fill="#c5c5c5" transform="rotate(-67.536 11.098 31.802)"/><rect width=".1" height="15.6" x="11" y="24" fill="#c5c5c5" transform="rotate(-67.5 11.098 31.8)"/><path fill="#4e514e" d="M20.7,31.8c-0.2-5.3-4.5-9.3-9.6-9.3c-5.1,0-9.4,4.1-9.6,9.3c-0.1-1.3,0.2-2.5,0.6-3.7
		c1.4-3.6,4.9-6.1,9-6.2C16.7,22,20.9,26.6,20.7,31.8z"/><path fill="#333" d="M11.1,23c-4.8,0-8.8,3.9-8.8,8.8c0,4.8,3.9,8.8,8.8,8.8s8.8-3.9,8.8-8.8C19.9,27,15.9,23,11.1,23z M11.1,39
		c-4,0-7.2-3.2-7.2-7.2c0-4,3.2-7.2,7.2-7.2c4,0,7.2,3.2,7.2,7.2C18.3,35.8,15.1,39,11.1,39z"/><path fill="#b9bab9" d="M11.1 24c-4.3 0-7.8 3.5-7.8 7.8 0 4.3 3.5 7.8 7.8 7.8 4.3 0 7.8-3.5 7.8-7.8C18.9 27.5 15.4 24 11.1 24zM11.1 39c-4 0-7.2-3.2-7.2-7.2 0-4 3.2-7.2 7.2-7.2 4 0 7.2 3.2 7.2 7.2C18.3 35.8 15.1 39 11.1 39zM40.2 24c-4.3 0-7.8 3.5-7.8 7.8 0 4.3 3.5 7.8 7.8 7.8 4.3 0 7.8-3.5 7.8-7.8C48 27.5 44.5 24 40.2 24zM40.2 39c-4 0-7.2-3.2-7.2-7.2 0-4 3.2-7.2 7.2-7.2 4 0 7.2 3.2 7.2 7.2C47.5 35.8 44.2 39 40.2 39z"/><path fill="#c0af47" d="M40.5,32.2c-0.1,0-0.2,0.1-0.2,0.1c-0.1,0-0.2,0-0.3-0.1l-2.4-3l-4.9-13.2c0-0.1,0-0.1,0.1-0.1l0.6-0.2
				c0.1,0,0.1,0,0.1,0.1l4.9,13.2l2.2,2.8C40.7,31.7,40.7,32,40.5,32.2z"/><rect width="14.3" height=".6" x="22.5" y="25.8" fill="#c0af47" transform="rotate(-43.498 29.632 26.036)"/><path fill="#c0af47" d="M22.2,28.3l-0.1-0.5c9.8-1.6,10.7-11.2,10.7-11.6l0.5,0.5C33.3,16.8,32.5,26.6,22.2,28.3z"/><g><polygon fill="#c0af47" points="11.3 32 11.1 31.8 18.7 19.4 18.9 19.6"/></g><g><rect width=".3" height="12.1" x="8.8" y="20.2" fill="#b5a241" transform="rotate(-14.887 8.97 26.2)"/></g><g><path fill="#b5a241" d="M17.5,23.3l-4.4-2l-9.2-0.9c-0.2,0-0.3-0.1-0.2-0.3c0-0.2,0.2-0.3,0.3-0.2l9.2,0.9c0,0,0.1,0,0.1,0l4.5,2.1
			C18,22.9,17.8,23.4,17.5,23.3z"/></g><path fill="#d8d8d6" d="M36.5,14.7c-0.2,0-0.3,0-0.5,0c-0.2-0.5-0.2-1-0.1-1.6c0.1,0,0.3-0.1,0.4-0.1C36.2,13.6,36.2,14.2,36.5,14.7
		z"/><g><path fill="#444" d="M29.9 10.5l-3.1.8c-.1 0-.3 0-.3-.2l-.2-.6c0-.1 0-.3.2-.3l3.1-.8c.1 0 .3 0 .3.2l.2.6C30.1 10.3 30 10.5 29.9 10.5zM28.9 12.6c0 .1 0 .3-.2.3l-2.4.7c-.1 0-.3 0-.3-.2L25.9 13c0-.1 0-.3.2-.3l2.4-.7c.1 0 .3 0 .3.2L28.9 12.6z"/></g><path fill="#444" d="M21.2,15.3c0,0,0.1-1.2-1-1.2c-1.1,0-3.4,0.1-4.3,0.2c-0.9,0-1.4,0.9-0.9,1.4c0.5,0.4,1.4,0.3,1.6,0.4
		c0.2,0.1,1.8,0.2,2.4,0C19.5,15.8,21.2,15.3,21.2,15.3z"/><circle cx="40.3" cy="31.8" r=".2" fill="#c5c5c5"/><path fill="#444" d="M36.1,12.9c-0.9,0.1-2.2,0.5-2.2,1.1c0,0.5,1.4,0.9,2.3,0.8C35.9,14.3,35.9,13.6,36.1,12.9z"/><g><rect width=".8" height="13.6" x="20.8" y="18.8" fill="#b5a241" transform="rotate(-19.482 21.182 25.61)"/></g><circle cx="11.1" cy="31.8" r="1" fill="#a1a1a1"/><path fill="#4e514e" d="M26.6,33.4c-0.2,1.6-1.7,2.8-3.3,2.6c-0.1,0-0.2,0-0.3,0l-12.4-2.4c-0.9-0.2-1.6-1.1-1.5-2
		c0.1-0.5,0.3-0.9,0.6-1.2c0.3-0.3,0.8-0.5,1.3-0.5l12.7,0.2C25.4,30.1,26.8,31.6,26.6,33.4z"/><g><path fill="#454745" d="M23.4,35.3c-1.2,0-2.2-1-2.2-2.2c0-1.2,1-2.2,2.2-2.2c1.2,0,2.2,1,2.2,2.2C25.6,34.3,24.6,35.3,23.4,35.3z
				 M23.4,31c-1.1,0-2,0.9-2,2c0,1.1,0.9,2,2,2c1.1,0,2-0.9,2-2C25.4,31.9,24.5,31,23.4,31z"/></g><path fill="#4e4e4e" d="M2.7,26.9c-0.2,0.4-0.4,0.8-0.6,1.2c-0.1,0.4-0.2,0.7-0.3,1.1H1.5c-0.1,0-0.2-0.1-0.2-0.2v-1.9
		c0-0.1,0.1-0.2,0.2-0.2H2.7z"/><g><polygon fill="#333" points="23.6 33.3 19 35.6 18.9 35.4 23.3 32.8"/><path fill="#3e433f" d="M19.6,34.9l0.2,0.4c0.1,0.1,0,0.3-0.1,0.4L18,36.4c-0.1,0.1-0.3,0-0.4-0.1l-0.2-0.4c-0.1-0.1,0-0.3,0.1-0.4
			l1.6-0.7C19.3,34.7,19.5,34.8,19.6,34.9z"/></g><g><circle cx="23.4" cy="33" r=".6" fill="#353a36"/></g></svg>