<svg xmlns="http://www.w3.org/2000/svg" id="Layer_1" enable-background="new 0 0 50 50" viewBox="0 0 50 50"><path fill="#eeeef0" d="M47.7,30.5l-9.1,0.4l-0.3-0.5l-4.9,0.2l-0.3,0.3l-22.4,0.2l-0.2-0.3l-5.1,0L5,30.9c0,0-2.7,0-3,0
		c-0.3,0-0.5,0.1-0.7-0.4c-0.2-0.6,0-1.6,0-1.6l0-1.3c0,0,0-1.4,0-2.2c0.1-1,2.1-5.3,2.7-6.2C4,19,4.1,18.8,4.2,18.7
		c1.1-1.3,4.2-1.7,6.3-1.8c2.1-0.1,34.8,0,34.8,0c3,0.1,3,2.9,3.3,5.2c0.2,1.2,0.2,3,0.3,4.4c0,0.7,0,1.3,0,1.7c0,0.3,0,0.4,0,0.4
		C49.2,30.7,47.7,30.5,47.7,30.5z"/><path fill="#a69585" d="M47.7,30.5l-9.1,0.4l-0.1,0l-0.3-0.5l-4.9,0.2l-0.3,0.3l0,0l-22.4,0.2l-0.2-0.3l-5.1,0L5,30.9l-0.1,0
		c0,0-2.7,0-3,0c-0.3,0-0.5,0.1-0.7-0.4c-0.2-0.6,0-1.6,0-1.6l0-1.3L49,27.3c0,0.8,0,1.3,0,1.3C49.2,30.7,47.7,30.5,47.7,30.5z"/><path fill="#333" d="M47.9,24.2H10.5c-0.2,0-0.3-0.2-0.3-0.3c0.1-4-0.3-4.8,0.3-4.8c38.4,0,37-0.5,37.1,0.2
		C48.1,21.6,48.5,23.9,47.9,24.2z"/><path fill="#444" d="M10.5,23.9C10.5,23.9,10.5,23.9,10.5,23.9c0-4.5-0.1-4.5,0-4.5l36.7-0.1c0.1,0,0.1,0.1,0.2,0.1
		c0.2,1.3,0.7,4.1,0.4,4.5H10.5z"/><path fill="#c5c5c5" d="M47.9,22.5c-0.1-1-0.3-2.3-0.5-3.1c0-0.1-0.1-0.1-0.2-0.1c-38.2,0.2-36.7,0.1-36.7,0.2v3.1H47.9z" opacity=".1"/><rect width=".6" height="5.1" x="19.3" y="19.1" fill="#333"/><rect width=".6" height="5.1" x="28.6" y="19.1" fill="#333"/><rect width=".6" height="5.1" x="37.9" y="19.1" fill="#333"/><path fill="#4e4e4e" d="M8.9,27.9L8.9,27.9c0,0,0.5-0.9,0.5-1.5c0-0.1,0.2-7,0-7.1c-0.3-0.3-4.3-0.1-4.6,0.1
			c-0.4,0.3-1.6,2.9-1.8,3.2c-0.2,0.6-0.9,2.6-0.8,2.9c0,0.4,0,2,0,2l-0.1,0c0,0,0-1.7,0-2c0-0.4,0.8-2.9,0.8-2.9
			c0.1-0.4,1.4-3,1.8-3.3c0.3-0.2,4.3-0.4,4.6-0.1c0.2,0.2,0,7.1,0,7.2C9.4,27,8.9,27.8,8.9,27.9z" opacity=".2"/><path fill="#444" d="M9,26.1v0.1c0,0.1-0.1,0.2-0.2,0.2L8,26.3c-0.1,0-0.2-0.1-0.2-0.2c0,0,0-0.1,0-0.1c0,0,0.1-0.1,0.1-0.1
		l0.9-0.1C8.9,25.9,9,26,9,26.1z"/><path fill="#d73149" d="M12.3,25.9v0.3c0,0.1-0.1,0.2-0.2,0.2h-0.5c-0.1,0-0.2-0.1-0.2-0.2v-0.3c0-0.1,0.1-0.2,0.2-0.2h0.5
		C12.2,25.8,12.3,25.8,12.3,25.9z"/><path fill="#938173" d="M42.6 28.4h-.7c-.2 0-.3-.1-.3-.3v-.4c0-.2.1-.3.3-.3h.7c.2 0 .3.1.3.3v.4C42.9 28.3 42.8 28.4 42.6 28.4zM41.9 27.5c-.1 0-.2.1-.2.2v.4c0 .1.1.2.2.2h.7c.1 0 .2-.1.2-.2v-.4c0-.1-.1-.2-.2-.2H41.9zM26.1 30h-.7c-.2 0-.3-.1-.3-.3v-.4c0-.2.1-.3.3-.3h.7c.2 0 .3.1.3.3v.4C26.4 29.9 26.2 30 26.1 30zM25.4 29.1c-.1 0-.2.1-.2.2v.4c0 .1.1.2.2.2h.7c.1 0 .2-.1.2-.2v-.4c0-.1-.1-.2-.2-.2H25.4z"/><path fill="#d73149" d="M24.8,29.8L24.8,29.8c0,0.2-0.1,0.2-0.2,0.2H24c-0.1,0-0.2-0.1-0.2-0.1v-0.1c0-0.1,0.1-0.1,0.2-0.1h0.7
			C24.7,29.6,24.8,29.7,24.8,29.8z"/><path fill="#938173" d="M33.4 28.8H10.2v-.3h23.4L33.4 28.8zM10.2 28.7h23.2l.1-.2H10.2V28.7zM48.1 28.8h-9.3v-.3h9.5L48.1 28.8zM38.8 28.7H48l.1-.2h-9.3V28.7zM5 28.8H2.4v-.3h2.8L5 28.8zM2.5 28.7H5l.1-.2H2.5V28.7z"/><path fill="#d73149" d="M49,28.1c-0.2,0.2-0.4,0.3-0.5,0.3c-0.2,0,0-0.3,0-1.1c0-0.4,0.3-0.7,0.5-0.9C49,27.2,49,27.8,49,28.1z"/><path fill="#444" d="M4.2,19.4c0,0.2-2.2,4.5-2.2,4.7c0,0.2-0.3,0.3-0.5,0.2c1.2-2.6,1.7-4,2.5-5.2C4,19.2,4.2,19.3,4.2,19.4z"/><path fill="#938173" d="M1.8,28.7l-0.6,0c-0.3,0-0.3-1.1,0-1.1l0.6,0.1V28.7z"/><path fill="#fc4" d="M1.8,28.5l-0.4,0c-0.2,0-0.2-0.7,0-0.7l0.4,0.1V28.5z" opacity=".2"/><path fill="#333" d="M10.6,30.4v0.4l-0.1-0.1l-5.1,0L5,30.9v-0.5c0-1.5,1.2-2.8,2.8-2.8C9.3,27.6,10.6,28.9,10.6,30.4z"/><circle cx="7.8" cy="30.8" r="2.4" fill="#444"/><circle cx="7.8" cy="30.8" r="1.5" fill="#4e4e4e"/><circle cx="7.8" cy="30.8" r=".5" fill="#3f3f3f"/><circle cx="7.8" cy="30" r=".2" fill="#3f3f3f"/><circle cx="7.8" cy="31.7" r=".2" fill="#3f3f3f"/><circle cx="8.6" cy="30.8" r=".2" fill="#3f3f3f"/><circle cx="7" cy="30.8" r=".2" fill="#3f3f3f"/><ellipse cx="8.4" cy="30.3" fill="#3f3f3f" rx=".2" ry=".2" transform="rotate(-45.001 8.398 30.253)"/><ellipse cx="7.2" cy="31.4" fill="#3f3f3f" rx=".2" ry=".2" transform="rotate(-45.001 7.22 31.43)"/><ellipse cx="8.4" cy="31.4" fill="#3f3f3f" rx=".2" ry=".2" transform="rotate(-45.001 8.398 31.43)"/><ellipse cx="7.2" cy="30.3" fill="#3f3f3f" rx=".2" ry=".2" transform="rotate(-45.001 7.22 30.251)"/><path fill="#333" d="M38.7,30.4v0.5l-0.1,0l-0.3-0.5l-4.9,0.2l-0.3,0.3v-0.4c0-1.5,1.2-2.8,2.8-2.8C37.4,27.6,38.7,28.9,38.7,30.4z
		"/><circle cx="35.9" cy="30.8" r="2.4" fill="#444"/><circle cx="35.9" cy="30.8" r="1.5" fill="#4e4e4e"/><circle cx="35.9" cy="30.8" r=".5" fill="#3f3f3f"/><circle cx="35.9" cy="30" r=".2" fill="#3f3f3f"/><circle cx="35.9" cy="31.7" r=".2" fill="#3f3f3f"/><circle cx="36.7" cy="30.8" r=".2" fill="#3f3f3f"/><circle cx="35" cy="30.8" r=".2" fill="#3f3f3f"/><g><ellipse cx="36.5" cy="30.3" fill="#3f3f3f" rx=".2" ry=".2" transform="rotate(-45.001 36.47 30.253)"/><ellipse cx="35.3" cy="31.4" fill="#3f3f3f" rx=".2" ry=".2" transform="rotate(-45.001 35.292 31.43)"/></g><g><ellipse cx="36.5" cy="31.4" fill="#3f3f3f" rx=".2" ry=".2" transform="rotate(-45.001 36.47 31.43)"/><ellipse cx="35.3" cy="30.3" fill="#3f3f3f" rx=".2" ry=".2" transform="rotate(-45.001 35.292 30.252)"/></g><path fill="#444" d="M9,20.6H4.3c0,0-1.5,3.1-1.3,3.5c0.2,0.5,0.9,0.4,1,0.4s3.9,0,3.9,0s0.8,0.1,1-0.7C9,22.9,9,20.6,9,20.6z"/><path fill="#c5c5c5" d="M8.9,23.4C9,22.4,9,20.6,9,20.6H4.3c0,0-0.8,1.8-1.2,2.8H8.9z" opacity=".1"/><g opacity=".2"><path fill="#4e4e4e" d="M9,20.8L9,20.8c-0.1-0.1,0.1-1.2-0.3-1.3c-0.5-0.1-3.6-0.1-3.9,0.3c-0.3,0.4-0.5,0.8-0.5,0.8l-0.1,0
			c0,0,0.2-0.4,0.5-0.8c0.3-0.4,4-0.5,4.2-0.2C9.2,19.9,9,20.8,9,20.8z"/></g></svg>