<?xml version="1.0" encoding="UTF-8"?><svg xmlns="http://www.w3.org/2000/svg" xmlns:xlink="http://www.w3.org/1999/xlink" version="1.1" id="Layer_1" x="0px" y="0px" viewBox="0 0 512 512" xml:space="preserve"><style type="text/css">.st0{opacity:0.2;enable-background:new ;} .st1{fill:#FFFFFF;} .st2{fill:#CE4102;} .st3{fill:#FC5908;} .st4{fill:#424242;} .st5{fill:#AFAEAE;} .st6{fill:#9E9B9B;} .st7{fill:#D6CECE;} .st8{fill:#FF3803;}</style><g id="XMLID_12_"><path id="XMLID_205_" class="st0" d="M506 167.1c0-21-17.1-38-38-38H181.6c-21 0-38 17.1-38 38v8.1H74.1c-11.9 0-22.2 8.1-25 19.7L44.9 212c-1.9-.9-4.1-1.4-6.3-1.4H35c-7.9 0-14.6 6.2-15.2 14.1l-1.1 15.4c-.3 4.1 1.1 8.1 3.8 11.1.6 1.7 1.5 3.2 2.5 4.7 2.2 3.2 5.2 5.7 8.8 7.7-.7 6.6-1.1 13.2-1.1 19.8v60.1c0 12.7 10.3 23 23 23h6.8c5.2 16.9 20.9 29.2 39.5 29.2s34.3-12.3 39.5-29.2h24.6c5.3 6.9 13.5 11.1 22.6 11.1h77.5c9.1 0 17.3-4.3 22.6-11.1h78.1c5.2 16.9 20.9 29.2 39.5 29.2s34.2-12.3 39.5-29.2h33.9c14.4 0 26.1-11.7 26.1-26.1V219.2v-52.1z" opacity="0.2"/><path id="XMLID_242_" class="st1" d="M493.2 154.4c0-21-17.1-38-38-38H168.8c-21 0-38 17.1-38 38v8.1H61.3c-11.9 0-22.2 8.1-25 19.7l-4.2 17.1c-1.9-.9-4.1-1.4-6.3-1.4h-3.6c-7.9 0-14.6 6.2-15.2 14.1l-1 15.3c-.3 4.1 1.1 8.1 3.8 11.1.6 1.7 1.5 3.2 2.5 4.7 2.2 3.2 5.2 5.7 8.8 7.7-.7 6.6-1.1 13.2-1.1 19.8v60.1c0 12.7 10.3 23 23 23h6.8c5.2 16.9 20.9 29.2 39.5 29.2s34.3-12.3 39.5-29.2h24.6c5.3 6.9 13.5 11.1 22.6 11.1h77.5c9.1 0 17.3-4.3 22.6-11.1h78.1c5.2 16.9 20.9 29.2 39.5 29.2s34.2-12.3 39.5-29.2h33.9c14.4 0 26.1-11.7 26.1-26.1V206.5v-52.1z" fill="#FFF"/><g id="XMLID_1230_"><path id="XMLID_2503_" class="st2" d="M455.2 130.1H168.8c-13.4 0-24.2 10.9-24.2 24.2v98h334.9v-98c-.1-13.3-11-24.2-24.3-24.2zm12.3 24.3v2h-31v-14.2h18.7c6.7-.1 12.3 5.4 12.3 12.2zM278.3 160h32.2v11.5h-32.2V160zm-7.3 11.5h-32.2V160H271v11.5zm46.8-11.5H350v11.5h-32.2V160zm39.6 0h32.2v11.5h-32.2V160zm39.5 0h32.2v11.5h-32.2V160zm0-3.7v-14.2h32.2v14.2h-32.2zm-7.4 0h-32.2v-14.2h32.2v14.2zm-39.5 0h-32.2v-14.2H350v14.2zm-39.5 0h-32.2v-14.2h32.2v14.2zm-39.5 0h-32.2v-14.2H271v14.2zm-39.6 0h-32.2v-14.2h32.2v14.2zm0 3.7v11.5h-32.2V160h32.2zm-39.5 11.5h-35.4V160h35.4v11.5zm0 3.7v11.5h-35.4v-11.5h35.4zm7.3 0h32.2v11.5h-32.2v-11.5zm39.6 0H271v11.5h-32.2v-11.5zm39.5 0h32.2v11.5h-32.2v-11.5zm39.5 0H350v11.5h-32.2v-11.5zm39.6 0h32.2v11.5h-32.2v-11.5zm39.5 0h32.2v11.5h-32.2v-11.5zm39.5 0h31v11.5h-31v-11.5zm0-3.7V160h31v11.5h-31zm-267.6-29.4h23.1v14.2h-35.4v-2c0-6.7 5.5-12.2 12.3-12.2zm-12.3 98.3v-50.1h35.4v28.3h7.4v-28.3h32.2v28.3h7.4v-28.3H271v28.3h7.4v-28.3h32.2v28.3h7.4v-28.3h32v28.3h7.4v-28.3h32.2v28.3h7.4v-28.3h32.2v28.3h7.4v-28.3h31v50.1H156.5z" fill="#CE4102"/><path id="XMLID_1236_" class="st3" d="M145.5 206.5v-24.8c0-3-2.4-5.5-5.5-5.5H61.3c-5.5 0-10.3 3.8-11.6 9.1l-10.9 44.6c-3.3 13.3-4.9 27-4.9 40.8v60.1c0 5.1 4.1 9.2 9.2 9.2h424c6.8 0 12.3-5.5 12.3-12.3V206.5H145.5z" fill="#FC5908"/><g id="XMLID_6379_"><path id="XMLID_6380_" d="M133.4 322.9H45.3c-1.8 0-3.3-1.5-3.3-3.3v-53.9c0-15.8 2-31.6 5.9-47l7.6-29.8c1.1-4.1 4.7-7 9-7h68.8c1.8 0 3.3 1.5 3.3 3.3v134.4c.1 1.8-1.4 3.3-3.2 3.3zM64.6 182.4c-4 0-7.5 2.7-8.5 6.6l-7.6 29.8c-3.9 15.3-5.9 31.1-5.9 46.8v53.9c0 1.5 1.3 2.8 2.8 2.8h88.1c1.5 0 2.8-1.3 2.8-2.8V185.2c0-1.5-1.3-2.8-2.8-2.8H64.6z"/></g><path id="XMLID_6378_" d="M127.2 239.2H54c-2.3 0-4.1-2.2-3.5-4.4l9.6-42.9c.6-2.8 3.1-4.8 6-4.8h61c1.8 0 3.3 1.5 3.3 3.3V236c.1 1.7-1.4 3.2-3.2 3.2z"/><g id="XMLID_6349_"><path id="XMLID_6377_" d="M123 340c0-18.5-15.2-33.5-33.6-33.5s-33.6 15-33.6 33.5H123z"/><path id="XMLID_6376_" class="st4" d="M58.4 340c1.2-15.9 14.6-28.8 31-28.8 16.3 0 29.8 12.9 31 28.8h-62z" fill="#424242"/><g id="XMLID_6359_"><g id="XMLID_6370_"><ellipse id="XMLID_6375_" cx="89.4" cy="341.5" rx="27.5" ry="27.6"/><path id="XMLID_6374_" class="st5" d="M89.4 359.7c-10 0-18.1-8.1-18.1-18.1 0-10 8.1-18.1 18.1-18.1s18.1 8.1 18.1 18.1c0 9.9-8.2 18.1-18.1 18.1z" fill="#AFAEAE"/><path id="XMLID_6373_" d="M89.4 350.2c-4.8 0-8.6-3.9-8.6-8.7 0-4.8 3.9-8.7 8.6-8.7s8.6 3.9 8.6 8.7c0 4.8-3.9 8.7-8.6 8.7z"/><path id="XMLID_6372_" class="st6" d="M89.4 349c-4.1 0-7.5-3.4-7.5-7.5s3.3-7.5 7.5-7.5 7.5 3.4 7.5 7.5-3.4 7.5-7.5 7.5z" fill="#9E9B9B"/><ellipse id="XMLID_6371_" cx="89.4" cy="341.5" rx="2.7" ry="2.8"/></g><g id="XMLID_6360_"><g id="XMLID_6367_"><circle id="XMLID_6369_" cx="89.4" cy="335.5" r="0.8"/><circle id="XMLID_6368_" cx="89.4" cy="347.5" r="0.8"/></g><g id="XMLID_6364_"><circle id="XMLID_6366_" cx="84.2" cy="338.5" r="0.8"/><circle id="XMLID_6365_" cx="94.6" cy="344.5" r="0.8"/></g><g id="XMLID_6361_"><circle id="XMLID_6363_" cx="84.2" cy="344.5" r="0.8"/><circle id="XMLID_6362_" cx="94.6" cy="338.5" r="0.8"/></g></g></g><g id="XMLID_6356_"><circle id="XMLID_6358_" cx="89.4" cy="327.8" r="3.1"/><circle id="XMLID_6357_" cx="89.4" cy="355" r="3.1"/></g><g id="XMLID_6353_"><circle id="XMLID_6355_" cx="77.6" cy="334.6" r="3.1"/><circle id="XMLID_6354_" cx="101.2" cy="348.2" r="3.1"/></g><g id="XMLID_6350_"><circle id="XMLID_6352_" cx="77.6" cy="348.2" r="3.1"/><circle id="XMLID_6351_" cx="101.2" cy="334.6" r="3.1"/></g></g><path id="XMLID_6348_" d="M40.5 237.6h-.6c-.3 0-.6.3-.6.6v.8c-8.7-.6-12.2-3.1-13.6-5.1-1.2-1.7-1.2-3.3-1.1-4.1h1.2c.8 0 1.4-.6 1.4-1.4V213c0-.8-.6-1.4-1.4-1.4h-3.6c-.7 0-1.3.6-1.4 1.3l-1.1 15.4c-.1.8.6 1.5 1.4 1.5h.9c-.1 1.2 0 3.4 1.5 5.5 2.5 3.6 7.8 5.7 15.7 6.2v1c0 .3.3.6.6.6h.6c.3 0 .6-.3.6-.6v-4.3c.1-.4-.2-.6-.5-.6z"/><path id="XMLID_6347_" d="M130.5 247.1h-18.7c0-2.2 1.8-4 4-4h10.6c2.3-.1 4.1 1.7 4.1 4z"/><g id="XMLID_6341_"><path id="XMLID_6346_" d="M33.9 291.1v-20.4c2.8 0 5.1 2.3 5.1 5.1V286c0 2.8-2.3 5.1-5.1 5.1z"/><path id="XMLID_6345_" class="st7" d="M37.9 276.3H35c-.3 0-.6-.3-.6-.6s.3-.6.6-.6h2.8c.3 0 .6.3.6.6 0 .4-.2.6-.5.6z" fill="#D6CECE"/><path id="XMLID_6344_" class="st7" d="M37.9 279.8H35c-.3 0-.6-.3-.6-.6s.3-.6.6-.6h2.8c.3 0 .6.3.6.6s-.2.6-.5.6z" fill="#D6CECE"/><path id="XMLID_6343_" class="st7" d="M37.9 283.3H35c-.3 0-.6-.3-.6-.6s.3-.6.6-.6h2.8c.3 0 .6.3.6.6s-.2.6-.5.6z" fill="#D6CECE"/><path id="XMLID_6342_" class="st7" d="M37.9 286.8H35c-.3 0-.6-.3-.6-.6s.3-.6.6-.6h2.8c.3 0 .6.3.6.6s-.2.6-.5.6z" fill="#D6CECE"/></g><g id="XMLID_6311_"><path id="XMLID_6339_" d="M427.3 340c0-18.5-15.2-33.5-33.6-33.5-18.4 0-33.6 15-33.6 33.5h67.2z"/><path id="XMLID_6338_" class="st4" d="M362.8 340c1.2-15.9 14.6-28.8 31-28.8 16.3 0 29.8 12.9 31 28.8h-62z" fill="#424242"/><g id="XMLID_6321_"><g id="XMLID_6332_"><ellipse id="XMLID_6337_" cx="393.8" cy="341.5" rx="27.5" ry="27.6"/><path id="XMLID_6336_" class="st5" d="M393.8 359.7c-10 0-18.1-8.1-18.1-18.1 0-10 8.1-18.1 18.1-18.1s18.1 8.1 18.1 18.1c-.1 9.9-8.2 18.1-18.1 18.1z" fill="#AFAEAE"/><path id="XMLID_6335_" d="M393.8 350.2c-4.8 0-8.6-3.9-8.6-8.7 0-4.8 3.9-8.7 8.6-8.7s8.6 3.9 8.6 8.7c0 4.8-3.9 8.7-8.6 8.7z"/><path id="XMLID_6334_" class="st6" d="M393.8 349c-4.1 0-7.5-3.4-7.5-7.5s3.3-7.5 7.5-7.5 7.5 3.4 7.5 7.5-3.4 7.5-7.5 7.5z" fill="#9E9B9B"/><ellipse id="XMLID_6333_" cx="393.8" cy="341.5" rx="2.7" ry="2.8"/></g><g id="XMLID_6322_"><g id="XMLID_6329_"><circle id="XMLID_6331_" cx="393.8" cy="335.5" r="0.8"/><circle id="XMLID_6330_" cx="393.8" cy="347.5" r="0.8"/></g><g id="XMLID_6326_"><circle id="XMLID_6328_" cx="388.6" cy="338.5" r="0.8"/><circle id="XMLID_6327_" cx="398.9" cy="344.5" r="0.8"/></g><g id="XMLID_6323_"><circle id="XMLID_6325_" cx="388.6" cy="344.5" r="0.8"/><circle id="XMLID_6324_" cx="398.9" cy="338.5" r="0.8"/></g></g></g><g id="XMLID_6318_"><circle id="XMLID_6320_" cx="393.8" cy="327.8" r="3.1"/><circle id="XMLID_6319_" cx="393.8" cy="355" r="3.1"/></g><g id="XMLID_6315_"><circle id="XMLID_6317_" cx="382" cy="334.6" r="3.1"/><circle id="XMLID_6316_" cx="405.6" cy="348.2" r="3.1"/></g><g id="XMLID_6312_"><circle id="XMLID_6314_" cx="382" cy="348.2" r="3.1"/><circle id="XMLID_6313_" cx="405.6" cy="334.6" r="3.1"/></g></g><g id="XMLID_6304_"><path id="XMLID_6310_" class="st2" fill="#CE4102" d="M146.3 213.1h41.4v63.2h-41.4z"/><path id="XMLID_6309_" class="st2" fill="#CE4102" d="M203.2 213.1h41.4v63.2h-41.4z"/><path id="XMLID_6308_" class="st2" fill="#CE4102" d="M260 213.1h41.4v63.2H260z"/><path id="XMLID_6307_" class="st2" fill="#CE4102" d="M316.9 213.1h41.4v63.2h-41.4z"/><path id="XMLID_6306_" class="st2" fill="#CE4102" d="M373.8 213.1h41.4v63.2h-41.4z"/><path id="XMLID_6305_" class="st2" fill="#CE4102" d="M430.6 213.1H472v63.2h-41.4z"/></g><path id="XMLID_6303_" d="M471 291.1H146.5c-.6 0-1-.5-1-1 0-.6.5-1 1-1H471c.6 0 1 .5 1 1s-.4 1-1 1z"/><path id="XMLID_6302_" d="M253.6 351.1h-77.5c-8.1 0-14.8-6.6-14.8-14.8 0-8.1 6.6-14.8 14.8-14.8h77.5c8.1 0 14.8 6.6 14.8 14.8 0 8.2-6.6 14.8-14.8 14.8z"/><path id="XMLID_6301_" class="st2" d="M176.1 350.6c-7.9 0-14.3-6.4-14.3-14.3s6.4-14.3 14.3-14.3h77.5c7.9 0 14.3 6.4 14.3 14.3s-6.4 14.3-14.3 14.3h-77.5z" fill="#CE4102"/><g id="XMLID_6293_"><path id="XMLID_6300_" class="st8" d="M479.5 327h-4c-1.6 0-3-1.3-3-3v-14.9c0-1.6 1.3-3 3-3h4V327z" fill="#FF3803"/><path id="XMLID_6299_" d="M478.5 309.6h-4.4c-.3 0-.5-.2-.5-.5s.2-.5.5-.5h4.4c.3 0 .5.2.5.5 0 .2-.2.5-.5.5z"/><path id="XMLID_6298_" d="M478.5 312.7h-4.4c-.3 0-.5-.2-.5-.5s.2-.5.5-.5h4.4c.3 0 .5.2.5.5s-.2.5-.5.5z"/><path id="XMLID_6297_" d="M478.5 315.8h-4.4c-.3 0-.5-.2-.5-.5s.2-.5.5-.5h4.4c.3 0 .5.2.5.5s-.2.5-.5.5z"/><path id="XMLID_6296_" d="M478.5 318.9h-4.4c-.3 0-.5-.2-.5-.5s.2-.5.5-.5h4.4c.3 0 .5.2.5.5s-.2.5-.5.5z"/><path id="XMLID_6295_" d="M478.5 322.1h-4.4c-.3 0-.5-.2-.5-.5s.2-.5.5-.5h4.4c.3 0 .5.2.5.5 0 .2-.2.5-.5.5z"/><path id="XMLID_6294_" d="M478.5 325.2h-4.4c-.3 0-.5-.2-.5-.5s.2-.5.5-.5h4.4c.3 0 .5.2.5.5 0 .2-.2.5-.5.5z"/></g></g></g><metadata><rdf:RDF xmlns:rdf="http://www.w3.org/1999/02/22-rdf-syntax-ns#" xmlns:rdfs="http://www.w3.org/2000/01/rdf-schema#" xmlns:dc="http://purl.org/dc/elements/1.1/"><rdf:Description about="https://iconscout.com/legal#licenses" dc:publisher="Iconscout" dc:date="2017-11-02" dc:format="image/svg+xml" dc:language="en"><dc:creator><rdf:Bag><rdf:li>First Styles</rdf:li></rdf:Bag></dc:creator></rdf:Description></rdf:RDF></metadata></svg>