<svg xmlns="http://www.w3.org/2000/svg" id="Layer_1" enable-background="new 0 0 50 50" viewBox="0 0 50 50"><path fill="#5e7dd1" d="M48.6,25.3c-0.5-0.7-1.8-2.1-4.7-2.7c-2.9-0.6-6.1-0.7-7.1-1c-3.6-1.3-7.5-5-17.9-4.2
		c-9.4,0.7-9.7,3.8-16.4,3.8c-0.4,0-1.2,2.6-1.3,3.1c-0.5,1.8-0.4,4.5,1.3,5.1c1.2,0.4,3.1,0.6,3.4,0.6c-0.1-0.8,0.5-1,0.9-0.8
		c0,0,0.1-0.1,0.1-0.1c0.1-0.1,0.2-0.1,0.3-0.2c0.3-0.2,0.7-0.2,1-0.3c0.8-0.1,1.6-0.1,2.3,0.1c1,0.1,2.1,0.1,3,0.3
		c0.5,0.1,0.6,0.2,0.8,0.6c0.1,0.2,0.1,0.4,0,0.5v0.3h9.5l12.3,0.3l0.1-0.6l0.1,0l2.7-0.2l4.9-0.1l0.9,0.3v0.4c0,0,0.1,0,0.2,0
		c0.6,0,3.1,0,3.6-0.9C49.1,28.5,49.1,26,48.6,25.3z"/><path fill="#333" d="M35.8,22.3l-23.3-0.9c-0.5-0.6-0.9-2.1,0.1-2.6c5.6-1.9,16-1.8,22,2.3C35.3,21.6,35.5,22,35.8,22.3z"/><path fill="#444" d="M12.6,21.2c-0.3-0.4-0.5-1-0.4-1.5c0.3-1.7,14.6-3.4,22.1,1.7c0.4,0.3,0.6,0.5,0.8,0.7L12.6,21.2z"/><path fill="#c5c5c5" d="M32.4,20.2c-6.8-3.3-16.1-2.4-19.7-1.2c-0.2,0.1-0.4,0.3-0.4,0.6c0,0.2,0,0.4,0,0.6H32.4z" opacity=".05"/><path fill="#5677c1" d="M7,26.1c-0.1-0.1-1.4-2.3-1.9-3.3c-0.1-0.2-0.2-0.4-0.2-0.5c-0.2-0.5,1-1.5,1.1-1.6l0,0
			C6,20.9,4.8,21.9,5,22.3c0,0.1,0.1,0.2,0.2,0.4C5.8,23.9,6.9,26,7,26.1L7,26.1z"/><path fill="#5677c1" d="M5.1,22.8l-3.9,1.5c0.2-0.7,0.4-1.4,0.6-2c1.1-0.4,0.8-0.2,3.2-0.5v0C4.8,22.2,4.9,22.3,5.1,22.8z"/><path fill="#d73149" d="M1.7,23.8c0.1-0.5,0.3-0.9,0.4-1.3c1.1-0.4,1-0.1,2.5-0.3c0,0.2,0,0.3,0.1,0.5L1.7,23.8z" opacity=".3"/><path fill="#5677c1" d="M10.9 23.4H9.4c-.2 0-.4-.2-.4-.4v-.6c0-.2.2-.4.4-.4h1.5c.2 0 .4.2.4.4v.6C11.3 23.3 11.1 23.4 10.9 23.4zM9.4 22.1c-.2 0-.3.1-.3.3v.6c0 .2.1.3.3.3h1.5c.2 0 .3-.1.3-.3v-.6c0-.2-.1-.3-.3-.3H9.4zM35.2 29.8L35.2 29.8c-.2 0-18-.3-18.6-.3-.6-.1-1-.6-1.7-1.6-.4-.7-1.5-2.7-2.3-4.1-.4-.7-.7-1.3-.8-1.4-.3-.4.7-.9.7-.9l0 .1c-1 .7-.9.4.1 2.3.8 1.5 1.9 3.4 2.3 4.1.7 1 1 1.5 1.6 1.6C17.2 29.5 34.5 29.7 35.2 29.8c.1-.5 1.7-6.9.4-7.5l.1 0C37.1 23 35.3 29.5 35.2 29.8L35.2 29.8z"/><path fill="#5677c1" d="M23.4,21.9L23.4,21.9c0.1,0.2,0.3,0.7,0.4,1.7c0.2,1.5,0.2,5.4,0.1,6l0.1,0c0.2-0.6,0.1-4.5-0.1-6
			C23.7,22.6,23.5,22.1,23.4,21.9z"/><path fill="#333" d="M45 29.1v1.3c-.1 0-.2 0-.2 0V30L44 29.8 39 29.9l-2.7.2v-1c0-2.4 1.9-4.3 4.3-4.3C43.1 24.8 45 26.7 45 29.1zM14.5 29.1v1.3c-.1 0-.2 0-.2 0V30l-.9-.3-4.9.1-2.7.1v-.8c0-2.4 1.9-4.3 4.3-4.3 1.2 0 2.3.5 3.1 1.3C14 26.8 14.5 27.9 14.5 29.1z"/><path fill="#5677c1" d="M44.2,23.6c0,0,1.9,1.3,2,1.8c0,0,2,0.2,2.3,0.5C48.5,25.9,48,23.8,44.2,23.6z"/><path fill="#fc4" d="M47.9,25.4c-0.5-0.1-1.1-0.2-1.6-0.3c-0.2-0.4-0.7-0.8-1.2-1.2C46.8,24.2,47.6,24.9,47.9,25.4z" opacity=".2"/><path fill="#5677c1" d="M46.2 25.4c1.1 1.6.3 1.6-1.8 1.4 2.1 0 2.4.1 2.2-.6C46.5 26 46.3 25.7 46.2 25.4zM47.5 27.7c0 0-.1 1.2.1 1.3.2.1.5 0 .5 0v-.8l.5 0v-.4L47.5 27.7zM27.1 23.2c0 .3-1.6.6-1.9.6-.3 0-.3-.3-.3-.6 0-.3 0-.6.3-.6C25.5 22.6 27.1 22.9 27.1 23.2z"/><rect width="2.1" height=".4" x="24.3" y="23" fill="#5e7dd1"/><path fill="#5677c1" d="M16.2,23c0,0.3-1.6,0.6-1.9,0.6S14,23.3,14,23c0-0.3,0-0.6,0.3-0.6S16.2,22.6,16.2,23z"/><rect width="2.1" height=".4" x="13.4" y="22.7" fill="#5e7dd1"/><path fill="#343435" d="M33.4,21.7c0,0.1,0,0.2-0.1,0.2c-0.2,0.3-0.8,0.3-1.2,0.3c-0.4,0-0.8,0-0.9-0.4c0,0,0-0.1,0-0.1
		c0-0.5,0.4-1,0.9-1C32.6,20.7,33.4,21.2,33.4,21.7z"/><path fill="#4e4e4e" d="M33.3,21.9c-0.2,0.3-0.8,0.3-1.2,0.3c-0.4,0-0.8,0-0.9-0.4c0.3-0.2,0.9-0.1,1.3-0.1
		C32.9,21.8,33.2,21.8,33.3,21.9z"/><polygon fill="#333" points="21.1 18 22.1 21.5 24.3 21.6 22.9 18"/><polygon fill="#2d2d2d" points="23.2 21.6 22 18 22 18 23.3 21.6"/><path fill="#444" d="M10.1,32.7c2,0,3.6-1.6,3.6-3.6c0-2-1.6-3.6-3.6-3.6C5.4,25.5,5.3,32.7,10.1,32.7z"/><path fill="#3f3f3f" d="M10.1,31.8c1.4,0,2.5-1.1,2.7-2.4c0-0.1,0-0.2,0-0.3c0-1.5-1.2-2.7-2.7-2.7C6.6,26.4,6.6,31.8,10.1,31.8z"/><path fill="#333" d="M9.6,31.5c0.2,0,0.3,0.1,0.5,0.1c1.3,0,2.3-1,2.4-2.2c0-0.1,0-0.2,0-0.3c0-1.4-1.1-2.5-2.5-2.5
			C7.2,26.7,6.7,30.9,9.6,31.5z"/><path fill="#a1a1a1" d="M8.5 27.3c.4.5.7 1 1.1 1.5.1.1.1.2.2.3 0 0 .1 0 .1-.1.1-.1.2-.2.3-.2 0 0 .1-.1.1-.1 0-.1-.1-.1-.1-.2-.4-.6-.6-1.1-1-1.7C8.9 26.9 8.7 27.1 8.5 27.3zM9.6 31.5c.2 0 .3.1.5.1.1 0 .3 0 .4 0 0-.7 0-1.3 0-2 0-.1 0-.2 0-.3-.1 0-.2 0-.3 0-.1 0-.2 0-.3 0 0 0-.1 0-.1 0 0 .1 0 .2 0 .2C9.8 30.2 9.7 30.8 9.6 31.5z"/><path fill="#a1a1a1" d="M10.1,28.7c0,0,0.1,0.1,0.1,0.1c0,0,0.1,0.1,0.1,0.1c0.1,0.1,0.2,0.1,0.3,0.2c0.1-0.1,0.1-0.1,0.2-0.2
				c0.4-0.5,0.7-1,1.1-1.5c-0.2-0.2-0.5-0.4-0.7-0.5c-0.3,0.5-0.6,1.1-0.9,1.6C10.1,28.6,10.1,28.6,10.1,28.7z"/><path fill="#a1a1a1" d="M10.1 29.4c.1 0 .2.1.3.1.6.2 1.2.5 1.8.7.1-.3.2-.5.3-.9-.6-.2-1.2-.4-1.8-.5-.1 0-.3-.1-.4-.1 0 0 0 .1 0 .1 0 .1-.1.2-.1.4C10.2 29.3 10.2 29.4 10.1 29.4zM7.7 29.4c0 .3.1.6.3.8.6-.2 1.2-.5 1.9-.8.1 0 .1 0 .2-.1 0-.1 0-.1 0-.2 0-.1 0-.1-.1-.2 0-.1 0-.2-.1-.3-.1 0-.1 0-.2.1C8.9 29 8.3 29.2 7.7 29.4z"/><circle cx="10.1" cy="29.1" r=".7" fill="#848381"/><g><circle cx="40.6" cy="29.1" r="3.6" fill="#444"/><path fill="#3f3f3f" d="M38.2,30.3c0.5,0.9,1.4,1.5,2.4,1.5c1.4,0,2.5-1.1,2.7-2.4c0-0.1,0-0.2,0-0.3c0-1.5-1.2-2.7-2.7-2.7
			C38.6,26.4,37.3,28.5,38.2,30.3z"/><path fill="#333" d="M38.4,30.2c0.4,0.8,1.3,1.4,2.2,1.4c1.3,0,2.3-1,2.4-2.2c0-0.1,0-0.2,0-0.3c0-1.4-1.1-2.5-2.5-2.5
			C38.8,26.7,37.6,28.6,38.4,30.2z"/><path fill="#a1a1a1" d="M38.9 27.3c.4.5.7 1 1.1 1.5.1.1.1.2.2.3 0 0 .1 0 .1-.1.1-.1.2-.2.3-.2 0 0 .1-.1.1-.1 0-.1-.1-.1-.1-.2-.4-.6-.6-1.1-1-1.7C39.4 26.9 39.2 27.1 38.9 27.3zM40.1 31.5c.2 0 .3.1.5.1.1 0 .3 0 .4 0 0-.7 0-1.3 0-2 0-.1 0-.2 0-.3-.1 0-.2 0-.3 0-.1 0-.2 0-.3 0 0 0-.1 0-.1 0 0 .1 0 .2 0 .2C40.2 30.2 40.1 30.8 40.1 31.5z"/><path fill="#a1a1a1" d="M40.5,28.7c0,0,0.1,0.1,0.1,0.1c0,0,0.1,0.1,0.1,0.1c0.1,0.1,0.2,0.1,0.3,0.2c0.1-0.1,0.1-0.1,0.2-0.2
				c0.4-0.5,0.7-1,1.1-1.5c-0.2-0.2-0.5-0.4-0.7-0.5c-0.3,0.5-0.6,1.1-0.9,1.6C40.6,28.6,40.6,28.6,40.5,28.7z"/><path fill="#a1a1a1" d="M40.6 29.4c.1 0 .2.1.3.1.6.2 1.2.5 1.8.7.1-.3.2-.5.3-.9-.6-.2-1.2-.4-1.8-.5-.1 0-.3-.1-.4-.1 0 0 0 .1 0 .1 0 .1-.1.2-.1.4C40.7 29.3 40.6 29.4 40.6 29.4zM38.1 29.4c0 .3.1.6.3.8.6-.2 1.2-.5 1.9-.8.1 0 .1 0 .2-.1 0-.1 0-.1 0-.2 0-.1 0-.1-.1-.2 0-.1 0-.2-.1-.3-.1 0-.1 0-.2.1C39.4 29 38.8 29.2 38.1 29.4z"/><circle cx="40.6" cy="29.1" r=".7" fill="#848381"/></g></svg>