<svg xmlns="http://www.w3.org/2000/svg" id="Layer_1" enable-background="new 0 0 50 50" viewBox="0 0 50 50"><path fill="#c1c820" d="M47.7,30.4c-0.4,0.4-1.9,0.5-2.2,0.5c0,0-0.1,0-0.1,0l-8.7,0.7l-0.3,0l-5.9,0.1l-18-0.1l-0.2,0l-8-0.7
		l-0.7,0.3c0,0-0.1,0-0.1,0c-1.2,0.2-1.8-0.5-1.8-0.8c0-0.4-0.6-2.2-0.7-2.7c-0.1-0.5,0.3-0.7,0.7-1.8c0.2-0.6,0.4-1,1.1-1.6
		c1.3-1.4,7.4-1.9,9.2-2c6.7-0.5,7.8-8.1,28.6-5.2c3.2,0.4,4.6,2.4,6.9,4.8c-0.1,0.2,0,1.4,0.1,2.5c0,0,0,0.1,0,0.1
		c0.1,1.2,0.8,1.2,1.2,1.3C49.1,25.8,49.3,28.7,47.7,30.4z"/><path fill="#333" d="M40.5,21.2l-23.4,0.7v-0.2c0.8-0.5,4.7-4.4,11.3-4.5c1.1,0,2.2-0.1,3.4-0.1C35.3,17.1,44.4,17.3,40.5,21.2z"/><path fill="#444" d="M40.4,21l-10.1,0.3l-2.4,0.1l-10.5,0.3c0,0,0.1-0.1,0.1-0.1c3.4-2.8,6.7-4.4,14.4-4.4
		C36.6,17.3,43.7,17.7,40.4,21z"/><path fill="#c5c5c5" d="M41.2,19c-0.5-0.8-2.5-1.8-9.3-1.8c-4.4,0-7.3,0.3-10.4,1.8H41.2z" opacity=".1"/><path fill="#aaaa13" d="M4.6,24.9c0,0-2.6,1.5-2.8,1.4c-0.1,0-0.1-0.2-0.1-0.4c0.2-0.6,0.4-1,1.1-1.6C3.2,24.3,3.9,24.4,4.6,24.9z"/><path fill="#d73149" d="M2,26c0,0,0-0.1,0-0.2c0.1-0.5,0.3-0.8,0.8-1.3c0.3,0,0.8,0.1,1.3,0.4C3.2,25.4,2.3,25.9,2,26z" opacity=".2"/><path fill="#aaaa13" d="M5.3,25.2h0.1c-0.2-0.2-0.6-0.4-0.9-0.4C4.7,24.9,5.4,25.4,5.3,25.2L5.3,25.2z"/><path fill="#333" d="M12.5,30.2c0,0.5-0.1,0.9-0.2,1.4l-8-0.7l-0.7,0.3c0,0-0.1,0-0.1,0c-0.6-3.1,1.6-5.9,4.4-5.9
		C10.5,25.3,12.5,27.5,12.5,30.2z"/><circle cx="8" cy="29.6" r="4.1" fill="#444"/><path fill="#333" d="M11.3,29.6c0,1.8-1.5,3.3-3.3,3.3c-4.4,0-4.4-6.6,0-6.6C9.8,26.3,11.3,27.8,11.3,29.6z"/><path fill="#a1a1a1" d="M10.2 27.2c-.5.7-.9 1.4-1.5 2.1-.1.1-.2.2-.3.4 0 0-.1-.1-.1-.1-.1-.1-.3-.2-.4-.3-.1 0-.1-.1-.2-.1.1-.1.1-.2.2-.3.5-.7.9-1.5 1.3-2.2C9.6 26.7 9.9 26.9 10.2 27.2zM8.7 32.8c-.2 0-.5.1-.7.1-.2 0-.3 0-.5 0 0-.9 0-1.8 0-2.7 0-.1 0-.3 0-.4.1 0 .2 0 .4 0 .1 0 .2 0 .3 0 .1 0 .1 0 .2 0 0 .1 0 .2 0 .3C8.5 31 8.6 31.9 8.7 32.8z"/><path fill="#a1a1a1" d="M8.1,29c-0.1,0-0.1,0.1-0.2,0.1c0,0-0.1,0.1-0.2,0.1c-0.1,0.1-0.3,0.2-0.4,0.3c-0.1-0.1-0.2-0.2-0.2-0.3
			c-0.5-0.7-1-1.4-1.5-2c0.3-0.3,0.6-0.5,1-0.7c0.4,0.7,0.8,1.4,1.3,2.2C8,28.9,8,28.9,8.1,29z"/><path fill="#a1a1a1" d="M8 30c-.1 0-.3.1-.4.2-.8.3-1.6.7-2.5 1-.2-.3-.3-.7-.4-1.1.8-.2 1.6-.5 2.4-.7.2-.1.4-.1.6-.1 0 0 0 .1 0 .1.1.2.1.3.1.5C7.9 29.9 7.9 29.9 8 30zM11.3 30c0 .4-.2.8-.3 1.1-.8-.3-1.6-.7-2.5-1-.1 0-.2-.1-.3-.1 0-.1 0-.1.1-.2 0-.1.1-.2.1-.3 0-.1.1-.2.1-.3.1 0 .2 0 .3.1C9.6 29.4 10.4 29.7 11.3 30z"/><path fill="#d73149" d="M47.5,24.3c-0.7-0.5-1.7-1.6-1.9-1.9c-0.3-0.4,0.5-1.2,0.5-1.2c0.5,0,1.1,0.4,1.4,0.7
		C47.3,22,47.4,23.1,47.5,24.3z"/><path fill="#fc4" d="M47.2,23.7c-0.5-0.5-1.2-1.2-1.4-1.4c-0.1-0.2,0.1-0.6,0.4-0.8c0.4,0.1,0.8,0.3,0.9,0.5
		C47.1,22.1,47.1,22.6,47.2,23.7z" opacity=".2"/><path fill="#aaaa13" d="M47,23.8c-0.2,1.9-0.8,1.4-2.9,1.7c0,0-0.1-0.1-0.1-0.1C46.5,24.9,46.5,25.6,47,23.8z"/><path fill="#aaaa13" d="M46.3 29.3c-.4-2.6-2.6-4.4-5.1-4.4-2.5 0-4.7 1.9-5.1 4.4.2-3.4 3.7-5.7 7-4.4C45.1 25.6 46.2 27.4 46.3 29.3zM12.8 29.3c-.4-2.6-2.6-4.4-5.1-4.4-2.5 0-4.7 1.9-5.1 4.4.1-1.8 1.3-3.6 3.2-4.4.6-.2 1.2-.4 1.9-.4C10.6 24.5 12.7 26.7 12.8 29.3zM12.5 29.8c10.4.6 21.2-.4 21.1-.4l3-.1C19.4 30.5 18.8 30.3 12.5 29.8z"/><path fill="#333" d="M30.7,17.3l-0.4,4.1l-2.4,0.1l1.2-4C29.5,17.3,30.2,17.3,30.7,17.3z"/><path fill="#aaaa13" d="M15.4 22.9l1.7-1.2 0 .2L15.6 23c-.1 1.4-.3 5.8.4 7l0 0 .1 0C15 29.8 15.4 23 15.4 22.9zM28.3 29.7l-.1 0c0-.1.2-6.1.2-6.8 0-.7.6-1.4.6-1.4l.1 0c0 0-.6.8-.6 1.4C28.5 23.6 28.3 29.6 28.3 29.7zM35.1 29.3l-.1 0c.3-1.5 4-6.1 4.8-7.1l.6-1.1.1.1-.6 1.1C39 23.4 35.4 27.9 35.1 29.3z"/><polygon fill="#444" points="29.1 21.4 29 21.4 30 17.3 30.1 17.3"/><rect width=".7" height="1.3" x="19.6" y="20.4" fill="#263335"/><path fill="#333" d="M45.5,30.1c0,0.3,0,0.5-0.1,0.8c0,0-0.1,0-0.1,0l-8.7,0.7c-1-3,1.2-6.2,4.3-6.2C43.5,25.4,45.5,27.5,45.5,30.1
		z"/><circle cx="41" cy="29.6" r="4.1" fill="#444"/><path fill="#333" d="M44.3,29.6c0,0.1,0,0.2,0,0.4c0,0.4-0.2,0.8-0.3,1.1c-0.4,0.9-1.3,1.5-2.3,1.7c-0.2,0-0.5,0.1-0.7,0.1
		c-0.2,0-0.3,0-0.5,0c-1.1-0.2-1.9-0.8-2.4-1.7c-0.2-0.3-0.3-0.7-0.4-1.1c0-0.1,0-0.3,0-0.4c0-0.9,0.4-1.8,1-2.4
		c0.3-0.3,0.6-0.5,1-0.7c0.4-0.2,0.9-0.3,1.3-0.3c0.4,0,0.8,0.1,1.2,0.2c0.4,0.1,0.7,0.4,1,0.6C43.9,27.8,44.3,28.6,44.3,29.6z"/><ellipse cx="26.1" cy="23.8" fill="#aaaa13" rx=".9" ry=".7"/><path fill="#263335" d="M28,23.8c0,0.2-0.2,0.4-0.4,0.4c-0.2,0-3.4-0.2-3.4-0.4c0-0.2,3.2-0.4,3.4-0.4C27.8,23.4,28,23.6,28,23.8z"/><ellipse cx="36.6" cy="23.3" fill="#aaaa13" rx=".9" ry=".7"/><path fill="#263335" d="M38.1,23.8c-0.2,0-3.4-0.2-3.4-0.4c0-0.2,3.2-0.4,3.4-0.4C38.7,23,38.7,23.8,38.1,23.8z"/><path fill="#4e4e4e" d="M46.8,21.1c-0.2,0-0.4,0.1-0.5,0.1c-0.4,0-2.7-2.6-2.7-2.6c0.1,0,0.2-0.2,0.4-0.3
		C44.6,18.8,46.3,20.5,46.8,21.1z"/><path fill="#a1a1a1" d="M43.2 27.2c-.5.7-.9 1.4-1.5 2.1-.1.1-.2.2-.3.4 0 0-.1-.1-.1-.1-.1-.1-.3-.2-.4-.3-.1 0-.1-.1-.2-.1.1-.1.1-.2.2-.3.5-.7.9-1.5 1.3-2.2C42.6 26.7 42.9 26.9 43.2 27.2zM41.7 32.8c-.2 0-.5.1-.7.1-.2 0-.3 0-.5 0 0-.9 0-1.8 0-2.7 0-.1 0-.3 0-.4.1 0 .2 0 .4 0 .1 0 .2 0 .3 0 .1 0 .1 0 .2 0 0 .1 0 .2 0 .3C41.5 31 41.6 31.9 41.7 32.8z"/><path fill="#a1a1a1" d="M41.1,29c-0.1,0-0.1,0.1-0.2,0.1c0,0-0.1,0.1-0.2,0.1c-0.1,0.1-0.3,0.2-0.4,0.3c-0.1-0.1-0.2-0.2-0.2-0.3
			c-0.5-0.7-1-1.4-1.5-2c0.3-0.3,0.6-0.5,1-0.7c0.4,0.7,0.8,1.4,1.3,2.2C41,28.9,41,28.9,41.1,29z"/><path fill="#a1a1a1" d="M41 30c-.1 0-.3.1-.4.2-.8.3-1.6.7-2.5 1-.2-.3-.3-.7-.4-1.1.8-.2 1.6-.5 2.4-.7.2-.1.4-.1.6-.1 0 0 0 .1 0 .1.1.2.1.3.1.5C40.9 29.9 40.9 29.9 41 30zM44.3 30c0 .4-.2.8-.3 1.1-.8-.3-1.6-.7-2.5-1-.1 0-.2-.1-.3-.1 0-.1 0-.1.1-.2 0-.1.1-.2.1-.3 0-.1.1-.2.1-.3.1 0 .2 0 .3.1C42.6 29.4 43.4 29.7 44.3 30z"/><circle cx="41" cy="29.6" r="1" fill="#848381"/><circle cx="8" cy="29.6" r="1" fill="#848381"/><path fill="#263335" d="M20.7,20.6c0,0.4,0,0.8-0.5,0.8c-0.4,0-0.8-0.3-0.8-0.8s0.3-0.8,0.8-0.8C20.7,19.9,20.7,20.2,20.7,20.6z"/><path fill="#c5c5c5" d="M20.7,20.6c0,0.4,0,0.8-0.4,0.8c0.2-0.2,0.2-0.5,0.2-0.9c0-0.3,0-0.6-0.2-0.7C20.7,20,20.7,20.2,20.7,20.6z"/></svg>