<svg xmlns="http://www.w3.org/2000/svg" id="Layer_1" enable-background="new 0 0 50 50" viewBox="0 0 50 50"><path fill="#8ebecc" d="M1.1,28.2c0.5,0.2,1.5,0.6,3.4,0.8c0.1-0.1,0.6-3.3,3.8-4.1c3.2-0.8,4.9,1,5.5,1.7c0.5,0.7,1.2,1.7,1.3,3.2
		l21.1,0.6c0,0,0-3,2.6-4.7c3.5-2.3,8,1,7.3,4.6c0,0.1,0,0.1,0,0.1s1.3,0.1,2.4-0.2l0,0c0.2-0.2,0.3-0.4,0.4-0.6
		c0.3-0.8,0.2-1.3,0-1.6c-0.1-0.2,0.1-0.6,0.1-1.5c0-0.6,0-0.9-0.7-1.6c-0.2,0.2-0.6,0.1-1,0.1c-0.6,0-2.4-1.5-2.7-1.8
		c-0.2-0.2,0-0.4,0.1-0.5c-3.2-1-8.1-1.2-8.1-1.2c0,0,0,0,0,0c-0.7,0-3.5-1.6-4.3-2c0,0,0,0,0,0c-2-1.1-2-1.3-3.3-1.8
		c-2.1-0.9-4.7-1.2-5.3-1.3c-0.8-0.1-5.5-0.3-10.5,0c-3.3,0.2-5.5,0.5-6.5,0.7c0.1,0.1,0.2,0.1,0.3,0.2c0.3,0.2,0.2,0.2,1.3,0.4
		c-0.9,0.5-1.1,0.6-1.2,0.6c0.2,0.2-2.4,1.4-3.7,2.3c-1,0.7-1.6,1.9-1.6,3.1h0c0,0,0,0.1,0,0.1c0,1.3-0.6,2-0.7,2.3
		C0.9,26.5,1.1,27.9,1.1,28.2z"/><path fill="#7ba9b9" d="M43.2 25.4c1.6-.2.6-.5 2.9-.3.5 0 .6-.3.6-.3l.1 0 .1 0c0 0-.2.4-.8.4-2.2-.2-1.3.1-2.7.2L43.2 25.4zM34.9 30.3c0 0 .6-3.8.5-6-.1-1.5-1.2-2.5-1.3-2.5L34 21.9c0 0 1.2.9 1.2 2.4.1 2.1-.4 5.9-.5 5.9L34.9 30.3z"/><path fill="#333" d="M8.3,20.5L34,22c0.1,0,0.2-0.1,0.1-0.2c-1.1-0.9-3.7-2.6-4.1-2.9c-2-1.3-5.7-1.8-6.4-1.8
		c-0.6,0-8.4-0.5-11.3,0.4C5.9,19.5,8.3,20.5,8.3,20.5z"/><path fill="#444" d="M33.2,21.6c-1.3-1-3.4-2.3-3.4-2.4c-1.9-1.2-5.6-1.7-6.2-1.8c-2.5-0.2-8.8-0.4-11.1,0.3
		c-1.2,0.4-5,1.8-4.1,2.4L33.2,21.6z"/><path fill="#c5c5c5" d="M9,19.2c3.7-2.3,8.8-2.2,14.6-1.8c0.6,0,4.3,0.5,6.2,1.8l0,0H9z" opacity=".05"/><path fill="#4e4e4e" d="M29,17.8c3.3,2.5,5.8,4.6,7.3,3.8c-0.7-0.2-2.4-1-4.1-1.9c0,0,0,0,0,0C30.2,18.5,30.2,18.3,29,17.8z"/><path fill="#444" d="M7.1,18.3c0.1,0,0.4-0.1,1.2-0.6c-1.1-0.2-1-0.1-1.3-0.4c-0.1-0.1-0.2-0.1-0.3-0.2c0,0,0,0,0,0
		c-0.5,0.1-0.8,0.1-0.8,0.1C5.5,17.9,6.9,18.1,7.1,18.3z"/><path fill="#d73149" d="M1.7,23.8c0.6-0.3,1.1-0.6,1.8-0.5c0.7,0.1,2.1-0.5,2.1-0.5c-1-0.6-1.7-1.7-3.1-1.3C2,22.1,1.8,22.9,1.7,23.8
		z"/><path fill="#7ba9b9" d="M7.8 25.1L7.8 25.1c.1-.1-.2-.4-.4-.8-.2-.4-1.7-1.5-1.7-1.6l-.1.1C8.1 24.8 6.7 23.9 7.8 25.1zM11.4 25l.1 0c0 0-.3-.7-.4-1.7-.2-1.9 1.2-1.6 1.2-2.5l-.1 0c0 0 0 .4-.3.6C10.3 22.3 11.4 24.8 11.4 25z"/><polygon fill="#333" points="22.3 17.2 23.3 21.2 21 21.1 20.9 17.1"/><rect width=".1" height="4.1" x="21.8" y="17.1" fill="#2a2a2b" transform="rotate(-5.768 21.886 19.165)"/><path fill="#7ba9b9" d="M22.4,30c0-0.1,0.8-5.3-0.3-8.6l-0.1,0c1,3.3,0.3,8.6,0.3,8.6L22.4,30z"/><rect width=".1" height="21.6" x="25.5" y="17.9" fill="#7ba9b9" transform="rotate(-88 25.561 28.73) scale(1.00001)"/><path fill="#6a99a5" d="M23.6 23v.2c0 .2.1.3.3.3h.4c.2 0 .3-.1.3-.3V23H23.6zM12.7 22.6v.2c0 .2.1.3.3.3h.4c.2 0 .3-.1.3-.3v-.2H12.7z"/><path fill="#4e4e4e" d="M30.4,21.4C30.4,21.5,30.4,21.5,30.4,21.4c0.1,0.5,0.7,0.5,1.2,0.6c0.5,0,0.2,0.4,0.4,0.6c0.2,0.2,1,0.3,1.3,0
		c0.2-0.3,0.1-0.1-0.3-1.1c0,0,0,0,0-0.1c-0.3-0.8-1.5-1.1-1.9-1.2c-0.1,0-0.3,0-0.4,0.1C30.5,20.7,30.4,21.1,30.4,21.4z"/><path fill="#e0e1e2" d="M30.4,21.4l2.6,0.1c0,0,0,0,0-0.1c-0.3-0.8-1.5-1.1-1.9-1.2c-0.1,0-0.3,0-0.4,0.1
		C30.5,20.7,30.4,21.1,30.4,21.4z"/><path fill="#333" d="M1.1,28.2C1.1,28.2,1.1,28.2,1.1,28.2C1.6,30.7,5,30.3,5,30.3l-0.1-0.2H6l8.5,0.4V31l21.9,0.4l0.2-0.6l8.5,0
		l0.4,0.2l0.5,0.1c0.9,0.1,1.9-0.5,2.5-1.1c-1.1,0.3-2.4,0.2-2.4,0.2s-0.1,0,0-0.1c0.7-3.5-3.7-6.9-7.3-4.6
		c-2.6,1.7-2.6,4.7-2.6,4.7L15,29.8c-0.1-1.5-0.7-2.5-1.3-3.2c-1.4-1.8-3.7-2.3-5.9-1.6c-2.8,0.9-3.4,4-3.4,4
		C2.6,28.7,1.6,28.4,1.1,28.2z"/><path fill="#d1d2d3" d="M48.6,27.9c-0.1-1.2,0.2-2.1-0.4-2.1h-0.3C47.2,25.8,47.2,27.9,48.6,27.9z"/><path fill="#7ba9b9" d="M44.5,23.2c0.3,0.4,2.1,1.8,2.7,1.8c0.4,0,0.8,0,1-0.1c-0.3-0.3-0.9-0.7-1.6-1.3c-0.5-0.4-1.2-0.7-2-0.9
		C44.5,22.8,44.4,23,44.5,23.2z"/><path fill="#fc4" d="M47.6,24.7c-0.3-0.2-0.7-0.5-1.2-0.9c-0.4-0.3-0.9-0.5-1.7-0.8c0.3,0.4,1.9,1.7,2.6,1.7L47.6,24.7z" opacity=".2"/><circle cx="41.3" cy="29.8" r="3.9" fill="#444"/><circle cx="41.3" cy="29.8" r="3" fill="#4e4e4e"/><circle cx="41.3" cy="29.8" r="1.3" fill="#848381"/><circle cx="9.9" cy="29.8" r="3.9" fill="#444"/><circle cx="9.9" cy="29.8" r="2.8" fill="#4e4e4e"/><circle cx="9.9" cy="29.8" r="1.3" fill="#848381"/><path fill="#7ba9b9" d="M22.7 22.9L22.7 22.9c0 .2.1.4.3.4h1.8c.2 0 .3-.1.3-.3v-.1H22.7zM11.9 22.5L11.9 22.5c0 .2.1.4.3.4H14c.2 0 .3-.1.3-.3v-.1H11.9z"/></svg>